<?xml version="1.0" standalone="no"?>
<!DOCTYPE svg PUBLIC "-//W3C//DTD SVG 1.1//EN" "http://www.w3.org/Graphics/SVG/1.1/DTD/svg11.dtd">
<svg xmlns="http://www.w3.org/2000/svg">
<metadata>Copyright (C) 2018 by original authors @ fontello.com</metadata>
<defs>
<font id="argon" horiz-adv-x="1000" >
<font-face font-family="argon" font-weight="400" font-stretch="normal" units-per-em="1000" ascent="850" descent="-150" />
<missing-glyph horiz-adv-x="1000" />
<glyph glyph-name="bus" unicode="&#xe82e;" d="M688-25h-375v-21a63 63 0 0 0-63-62c-34 0-62 28-62 62v27a146 146 0 0 0-105 140v541a146 146 0 0 0 146 146h542a146 146 0 0 0 146-146v-541a146 146 0 0 0-104-140v-27a63 63 0 0 0-63-62c-34 0-62 28-62 62v21z m-230 750h-229a62 62 0 0 1-62-62v-251a62 62 0 0 1 62-62h229v375z m84 0v-375h229a62 62 0 0 1 62 62v251a62 62 0 0 1-62 62h-229z m291-444c-19-9-40-14-62-14h-542a146 146 0 0 0-62 14v-160a63 63 0 0 1 62-63h542a63 63 0 0 1 62 63v160z m-562-181a63 63 0 1 0 0 125 63 63 0 0 0 0-125z m458 0a63 63 0 1 0 0 125 63 63 0 0 0 0-125z" horiz-adv-x="1000" />

<glyph glyph-name="calculator-1" unicode="&#xe82f;" d="M323 232l43 43a42 42 0 0 0 59-59l-43-43 43-43a42 42 0 0 0-59-59l-43 43-43-43a42 42 0 0 0-59 59l43 43-43 43a42 42 0 0 0 59 59l43-43z m31 347h42a42 42 0 1 0 0-83h-42v-42a42 42 0 1 0-83 0v42h-42a42 42 0 1 0 0 83h42v42a42 42 0 1 0 83 0v-42z m-312 125a104 104 0 0 0 104 104h708a104 104 0 0 0 104-104v-708a104 104 0 0 0-104-104h-708a104 104 0 0 0-104 104v708z m83 0v-708c0-12 9-21 21-21h708c12 0 21 9 21 21v708c0 12-9 21-21 21h-708c-12 0-21-9-21-21z m479-208a42 42 0 1 0 0 83h167a42 42 0 1 0 0-83h-167z m0-292a42 42 0 1 0 0 84h167a42 42 0 1 0 0-84h-167z m0-146a42 42 0 1 0 0 84h167a42 42 0 1 0 0-84h-167z" horiz-adv-x="1000" />

<glyph glyph-name="calendar-1" unicode="&#xe830;" d="M729 725h125a104 104 0 0 0 104-104v-625a104 104 0 0 0-104-104h-708a104 104 0 0 0-104 104v625a104 104 0 0 0 104 104h125v42a42 42 0 1 0 83 0v-42h292v42a42 42 0 1 0 83 0v-42z m0-83v-42a42 42 0 1 0-83 0v42h-292v-42a42 42 0 1 0-83 0v42h-125c-12 0-21-10-21-21v-625c0-12 9-21 21-21h708c12 0 21 9 21 21v625c0 11-9 21-21 21h-125z m-229-334a63 63 0 1 0 0 125 63 63 0 0 0 0-125z m229 0a63 63 0 1 0 0 125 63 63 0 0 0 0-125z m-458-229a63 63 0 1 0 0 125 63 63 0 0 0 0-125z m229 0a63 63 0 1 0 0 125 63 63 0 0 0 0-125z" horiz-adv-x="1000" />

<glyph glyph-name="calendar-2" unicode="&#xe831;" d="M729 725h125a104 104 0 0 0 104-104v-625a104 104 0 0 0-104-104h-708a104 104 0 0 0-104 104v625a104 104 0 0 0 104 104h125v42a42 42 0 1 0 83 0v-42h292v42a42 42 0 1 0 83 0v-42z m0-83v-42a42 42 0 1 0-83 0v42h-292v-42a42 42 0 1 0-83 0v42h-125c-12 0-21-10-21-21v-625c0-12 9-21 21-21h708c12 0 21 9 21 21v625c0 11-9 21-21 21h-125z m-83-250h-42a42 42 0 1 0 0 83h84a42 42 0 0 0 41-42v-333a42 42 0 1 0-83 0v292z m-292-120a42 42 0 0 0 0 5c0 10 4 19 9 26a42 42 0 0 0 24 15 125 125 0 0 0 22 3 42 42 0 0 1 29 39c0 17-16 32-38 32-14 0-26-7-32-16a42 42 0 1 0-69 48c22 32 60 51 101 51 66 0 121-50 121-115a126 126 0 0 0-23-71 127 127 0 0 0 44-95c0-76-64-136-141-136-53 0-101 29-125 73a42 42 0 1 0 73 40c10-18 29-29 52-29 32 0 57 24 57 52 0 27-26 49-52 43a42 42 0 0 0-51 35z" horiz-adv-x="1000" />

<glyph glyph-name="car" unicode="&#xe832;" d="M854 17v-63a63 63 0 0 0-62-62c-35 0-63 28-63 62v63h-458v-63a63 63 0 0 0-63-62c-34 0-62 28-62 62v63c-58 0-104 46-104 104v250c0 36 18 68 46 87l65 258c13 52 64 92 118 92h458c54 0 105-40 118-92l65-259a104 104 0 0 0 46-86v-250a104 104 0 0 0-104-104z m-88 679c-3 15-21 29-37 29h-458c-15 0-34-14-37-29l-56-221h644l-56 221z m-641-325v-250c0-12 10-21 21-21h708a21 21 0 0 1 21 21v250c0 11-9 21-21 21h-708a21 21 0 0 1-21-21z m146-188a63 63 0 1 0 0 125 63 63 0 0 0 0-125z m458 0a63 63 0 1 0 0 125 63 63 0 0 0 0-125z" horiz-adv-x="1000" />

<glyph glyph-name="card" unicode="&#xe833;" d="M875 517v62c0 12-9 21-21 21h-708a21 21 0 0 1-21-21v-62h750z m0-125h-750v-271c0-12 9-21 21-21h708a21 21 0 0 1 21 21v271z m-833 187a104 104 0 0 0 104 104h708c58 0 104-46 104-104v-458a104 104 0 0 0-104-104h-708c-58 0-104 46-104 104v458z m187-416a42 42 0 1 0 0 83h42a42 42 0 1 0 0-83h-42z m188 0a42 42 0 1 0 0 83h125a42 42 0 1 0 0-83h-125z" horiz-adv-x="1000" />

<glyph glyph-name="cards" unicode="&#xe834;" d="M125 418l49-418c2-13 15-25 30-25h592c15 0 28 12 30 25l49 418c1 9-5 15-15 15h-720c-10 0-16-6-15-15z m-83-10c-7 59 38 109 98 109h720c60 0 105-49 98-109l-49-417c-7-56-56-99-113-99h-592c-57 0-106 43-113 99l-49 417z m166 171a42 42 0 1 0 0 84h584a42 42 0 1 0 0-84h-584z m105 146a42 42 0 1 0 0 83h375a42 42 0 1 0 0-83h-375z" horiz-adv-x="1000" />

<glyph glyph-name="chart-1" unicode="&#xe835;" d="M42 517a42 42 0 1 0 83 0v-584a42 42 0 1 0-83 0v584z m833 21a42 42 0 1 0 83 0v-605a42 42 0 1 0-83 0v605z m-271 229a42 42 0 1 0 84 0v-834a42 42 0 1 0-84 0v834z m-291-479a42 42 0 1 0 83 0v-355a42 42 0 1 0-83 0v355z" horiz-adv-x="1000" />

<glyph glyph-name="chart-2" unicode="&#xe836;" d="M792 704v-708c0-12 9-21 21-21h41c12 0 21 9 21 21v708c0 12-9 21-21 21h-41c-12 0-21-9-21-21z m-84 0a104 104 0 0 0 105 104h41a104 104 0 0 0 104-104v-708a104 104 0 0 0-104-104h-41a104 104 0 0 0-105 104v708z m-666-250a104 104 0 0 0 104 104h42a104 104 0 0 0 104-104v-458a104 104 0 0 0-104-104h-42a104 104 0 0 0-104 104v458z m83 0v-458c0-12 9-21 21-21h42a21 21 0 0 1 20 21v458c0 12-9 21-20 21h-42a21 21 0 0 1-21-21z m250-250a104 104 0 0 0 104 104h42a104 104 0 0 0 104-104v-208a104 104 0 0 0-104-104h-42a104 104 0 0 0-104 104v208z m83 0v-208a21 21 0 0 1 21-21h42c11 0 21 9 21 21v208a21 21 0 0 1-21 21h-42c-11 0-21-9-21-21z" horiz-adv-x="1000" />

<glyph glyph-name="chart-3" unicode="&#xe837;" d="M42 704a104 104 0 0 0 104 104h708a104 104 0 0 0 104-104v-708a104 104 0 0 0-104-104h-708a104 104 0 0 0-104 104v708z m83 0v-708c0-12 9-21 21-21h708c12 0 21 9 21 21v708c0 12-9 21-21 21h-708c-12 0-21-9-21-21z m125-479a42 42 0 1 0 83 0v-83a42 42 0 1 0-83 0v83z m208 167a42 42 0 1 0 84 0v-250a42 42 0 1 0-84 0v250z m209 166a42 42 0 1 0 83 0v-416a42 42 0 1 0-83 0v416z" horiz-adv-x="1000" />

<glyph glyph-name="chart-4" unicode="&#xe838;" d="M42 704a104 104 0 0 0 104 104h708a104 104 0 0 0 104-104v-708a104 104 0 0 0-104-104h-708a104 104 0 0 0-104 104v708z m83 0v-708c0-12 9-21 21-21h708c12 0 21 9 21 21v708c0 12-9 21-21 21h-708c-12 0-21-9-21-21z m413-471l-138 104-162-162a42 42 0 0 0-59 59l187 187a42 42 0 0 0 55 4l139-104 204 185a42 42 0 1 0 56-62l-229-208a42 42 0 0 0-53-3z" horiz-adv-x="1000" />

<glyph glyph-name="chart-5" unicode="&#xe839;" d="M875 677l-245-193a42 42 0 0 0-50-1l-182 128-289-231a42 42 0 1 0-52 65l313 250a42 42 0 0 0 50 2l183-128 199 156h-94a42 42 0 1 0 0 83h209a42 42 0 0 0 41-41v-209a42 42 0 1 0-83 0v119z m-729-369a42 42 0 1 0 83 0v-375a42 42 0 1 0-83 0v375z m208 167a42 42 0 1 0 84 0v-542a42 42 0 1 0-84 0v542z m209-125a42 42 0 1 0 83 0v-417a42 42 0 1 0-83 0v417z m208 83a42 42 0 1 0 83 0v-500a42 42 0 1 0-83 0v500z" horiz-adv-x="1000" />

<glyph glyph-name="chart-diagram-1" unicode="&#xe83a;" d="M792 329a42 42 0 0 0 41-41c0-219-177-396-395-396s-396 177-396 396 177 395 396 395a42 42 0 0 0 41-41v-313h313z m-667-41c0-173 140-313 313-313 158 0 289 118 309 271h-309a42 42 0 0 0-42 42v309c-153-20-271-151-271-309z m438 520c218 0 395-177 395-395a42 42 0 0 0-41-42h-354a42 42 0 0 0-42 42v354a42 42 0 0 0 42 41z m41-354h268c-18 139-129 250-268 268v-268z" horiz-adv-x="1000" />

<glyph glyph-name="chart-diagram-2" unicode="&#xe83b;" d="M266 57a373 373 0 0 1 234-82c207 0 375 168 375 375 0 193-146 352-333 373v-373c0-12-5-23-13-30l-263-263z m-59 59l221 221-286 126a375 375 0 0 1-17-113c0-88 31-170 82-234z m-31 423l282-125v309c-120-14-224-84-282-184z m324-647c-253 0-458 205-458 458s205 458 458 458 458-205 458-458-205-458-458-458z" horiz-adv-x="1000" />

<glyph glyph-name="chart-down-1" unicode="&#xe83c;" d="M604 308a42 42 0 1 0 84 0v-375a42 42 0 1 0-84 0v375z m-291 230a42 42 0 1 0 83 0v-605a42 42 0 1 0-83 0v605z m-271 229a42 42 0 1 0 83 0v-834a42 42 0 1 0-83 0v834z m833-688a42 42 0 1 0 83 0v-146a42 42 0 1 0-83 0v146z" horiz-adv-x="1000" />

<glyph glyph-name="chart-down-2" unicode="&#xe83d;" d="M125 704v-708c0-12 9-21 21-21h42c11 0 20 9 20 21v708c0 12-9 21-20 21h-42c-12 0-21-9-21-21z m-83 0a104 104 0 0 0 104 104h42a104 104 0 0 0 104-104v-708a104 104 0 0 0-104-104h-42a104 104 0 0 0-104 104v708z m333-250a104 104 0 0 0 104 104h42a104 104 0 0 0 104-104v-458a104 104 0 0 0-104-104h-42a104 104 0 0 0-104 104v458z m83 0v-458c0-12 10-21 21-21h42a21 21 0 0 1 21 21v458c0 12-10 21-21 21h-42a21 21 0 0 1-21-21z m250-250a104 104 0 0 0 105 104h41a104 104 0 0 0 104-104v-208a104 104 0 0 0-104-104h-41a104 104 0 0 0-105 104v208z m84 0v-208a21 21 0 0 1 21-21h41c12 0 21 9 21 21v208a21 21 0 0 1-21 21h-41c-12 0-21-9-21-21z" horiz-adv-x="1000" />

<glyph glyph-name="chart-up-1" unicode="&#xe83e;" d="M313 308a42 42 0 1 0 83 0v-375a42 42 0 1 0-83 0v375z m291 230a42 42 0 1 0 84 0v-605a42 42 0 1 0-84 0v605z m271 229a42 42 0 1 0 83 0v-834a42 42 0 1 0-83 0v834z m-833-688a42 42 0 1 0 83 0v-146a42 42 0 1 0-83 0v146z" horiz-adv-x="1000" />

<glyph glyph-name="chart-up-2" unicode="&#xe83f;" d="M792 704v-708c0-12 9-21 21-21h41c12 0 21 9 21 21v708c0 12-9 21-21 21h-41c-12 0-21-9-21-21z m-84 0a104 104 0 0 0 105 104h41a104 104 0 0 0 104-104v-708a104 104 0 0 0-104-104h-41a104 104 0 0 0-105 104v708z m-333-250a104 104 0 0 0 104 104h42a104 104 0 0 0 104-104v-458a104 104 0 0 0-104-104h-42a104 104 0 0 0-104 104v458z m83 0v-458c0-12 10-21 21-21h42a21 21 0 0 1 21 21v458c0 12-10 21-21 21h-42a21 21 0 0 1-21-21z m-416-250a104 104 0 0 0 104 104h42a104 104 0 0 0 104-104v-208a104 104 0 0 0-104-104h-42a104 104 0 0 0-104 104v208z m83 0v-208a21 21 0 0 1 21-21h42c11 0 20 9 20 21v208a21 21 0 0 1-20 21h-42c-12 0-21-9-21-21z" horiz-adv-x="1000" />

<glyph glyph-name="check-1" unicode="&#xe840;" d="M113 400a42 42 0 0 1-59-59l292-291a42 42 0 0 1 59 0l541 541a42 42 0 0 1-59 59l-512-512-262 262z" horiz-adv-x="1000" />

<glyph glyph-name="check-2" unicode="&#xe841;" d="M192 365a19 19 0 0 1-26 1l-36-36a18 18 0 0 1 0-25l218-214a39 39 0 0 1 55-1l467 465a18 18 0 0 1 0 25l-36 36a19 19 0 0 1-26-1l-404-401a42 42 0 0 0-58 0l-154 151z m183-63l374 373c40 39 104 39 144 0l36-36a101 101 0 0 0-1-143l-467-465a122 122 0 0 0-172 0l-217 215a101 101 0 0 0 0 143l35 36c40 39 104 39 144 0l124-123z" horiz-adv-x="1000" />

<glyph glyph-name="check-3" unicode="&#xe842;" d="M500-108c-253 0-458 205-458 458s205 458 458 458 458-205 458-458-205-458-458-458z m0 83c207 0 375 168 375 375s-168 375-375 375-375-168-375-375 168-375 375-375z m-158 405l96-96 220 221a42 42 0 0 0 59-59l-250-250a42 42 0 0 0-59 0l-125 125a42 42 0 0 0 59 59z" horiz-adv-x="1000" />

<glyph glyph-name="clip" unicode="&#xe843;" d="M820 281l-240-239c-90-89-235-89-325 0a228 228 0 0 0 0 324l320 318c54 55 142 55 197 0a138 138 0 0 0 0-195l-320-319a49 49 0 0 0-69 0 48 48 0 0 0 0 68l240 239a42 42 0 0 1-59 59l-240-239a132 132 0 0 1 0-186 133 133 0 0 1 187 0l320 319c87 86 87 227 0 313-87 87-228 87-315 0l-320-318c-122-122-122-320 0-442 122-122 320-122 443 0l240 239a42 42 0 1 1-59 59z" horiz-adv-x="1000" />

<glyph glyph-name="clock-1" unicode="&#xe844;" d="M500-108c-253 0-458 205-458 458s205 458 458 458 458-205 458-458-205-458-458-458z m0 83c207 0 375 168 375 375s-168 375-375 375-375-168-375-375 168-375 375-375z m30 346a42 42 0 0 0-30-13h-187a42 42 0 1 0 0 84h145v208a42 42 0 1 0 84 0v-250c0-11-5-22-12-29z" horiz-adv-x="1000" />

<glyph glyph-name="clock-2" unicode="&#xe845;" d="M500-108c-230 0-417 186-417 416s187 417 417 417 417-186 417-417-187-416-417-416z m0 83c184 0 333 149 333 333s-149 334-333 334-333-150-333-334 149-333 333-333z m-387 616a42 42 0 0 0-59 59l146 146a42 42 0 0 0 59-59l-146-146z m833 59a42 42 0 0 0-59-59l-146 146a42 42 0 0 0 59 59l146-146z m-416-371a42 42 0 0 0-30-12h-146a42 42 0 1 0 0 83h104v167a42 42 0 1 0 84 0v-209c0-11-5-22-12-29z" horiz-adv-x="1000" />

<glyph glyph-name="cloud-download" unicode="&#xe846;" d="M500 642c131 0 244-87 280-209a188 188 0 0 0-9-375 42 42 0 1 0 0 84 104 104 0 1 1-17 207 42 42 0 0 0-48 34c-16 101-103 175-206 175a208 208 0 0 1-181-104 42 42 0 0 0-38-21 146 146 0 1 1-10-291 42 42 0 1 0 0-84c-127 0-229 103-229 230 0 123 97 223 218 228a291 291 0 0 0 240 126z m42-441l54 54a42 42 0 0 0 59-59l-125-125a42 42 0 0 0-59 0l-125 125a42 42 0 0 0 59 59l53-54v191c0 23 19 41 42 41 23 0 42-18 42-41v-191z" horiz-adv-x="1000" />

<glyph glyph-name="cloud-upload" unicode="&#xe847;" d="M500 642c131 0 244-87 280-209a188 188 0 0 0-9-375 42 42 0 1 0 0 84 104 104 0 1 1-17 207 42 42 0 0 0-48 34c-16 101-103 175-206 175a208 208 0 0 1-181-104 42 42 0 0 0-38-21 146 146 0 1 1-10-291 42 42 0 1 0 0-84c-127 0-229 103-229 230 0 123 97 223 218 228a291 291 0 0 0 240 126z m42-351v-191a42 42 0 0 0-42-42c-23 0-42 19-42 42v191l-53-54a42 42 0 0 0-59 59l125 125a42 42 0 0 0 59 0l125-125a42 42 0 0 0-59-59l-54 54z" horiz-adv-x="1000" />

<glyph glyph-name="cloud" unicode="&#xe848;" d="M125 288a146 146 0 0 1 146-146h500a104 104 0 1 1-17 207 42 42 0 0 0-48 34c-16 101-103 175-206 175a208 208 0 0 1-181-104 42 42 0 0 0-38-21 146 146 0 0 1-156-145z m833-42a188 188 0 0 0-187-188h-500c-127 0-229 103-229 230 0 123 97 223 218 228a291 291 0 0 0 240 126c131 0 244-87 280-209a188 188 0 0 0 178-187z" horiz-adv-x="1000" />

<glyph glyph-name="coin-1" unicode="&#xe849;" d="M458 225v205l-36-29a42 42 0 1 0-52 65l104 83c27 22 68 3 68-32v-292h62a42 42 0 1 0 0-83h-208a42 42 0 1 0 0 83h62z m42-333c-253 0-458 205-458 458s205 458 458 458 458-205 458-458-205-458-458-458z m0 83c207 0 375 168 375 375s-168 375-375 375-375-168-375-375 168-375 375-375z" horiz-adv-x="1000" />

<glyph glyph-name="coins-1" unicode="&#xe84a;" d="M125 250c2-2 7-5 12-9 17-10 44-20 79-28 74-19 175-30 284-30 109 0 211 11 285 30 34 8 61 18 78 28 6 4 10 7 12 9v113c-82-36-218-55-375-55s-293 19-375 55v-113z m0-95v-113c2-3 7-6 12-9 17-10 44-20 79-29 74-18 175-29 284-29 109 0 211 11 285 29 34 9 61 19 78 29 6 3 10 6 12 9v113c-82-36-218-55-375-55s-293 19-375 55z m0 304c2-3 7-6 12-9 17-10 44-20 79-29 74-19 175-29 284-29 109 0 211 10 285 29 34 9 61 19 78 29 6 3 10 6 12 9v113c-82-37-218-55-375-55s-293 18-375 55v-113z m5 204c2-2 5-3 7-5 17-10 44-20 79-29 74-18 175-29 284-29 109 0 211 11 285 29 34 9 61 19 78 29a88 88 0 0 1 7 5 88 88 0 0 1-7 4c-17 10-44 20-78 29-74 18-176 29-285 29-109 0-210-11-284-29-35-9-62-19-79-29a88 88 0 0 1-7-4z m-88-625v625c0 95 200 145 458 145s458-50 458-145v-625c0-96-200-146-458-146s-458 50-458 146z" horiz-adv-x="1000" />

<glyph glyph-name="coins-2" unicode="&#xe84b;" d="M354 142l0 166-16-12c-19-14-45-10-59 8-14 19-10 45 9 59l83 62c27 21 67 1 67-33l0-250 41 0c23 0 42-19 42-42 0-23-19-42-42-42l-166 0c-23 0-42 19-42 42 0 23 19 42 42 42l41 0 0 0z m353 273c39 4 74 10 102 20 19 6 33 13 41 20 2 1 3 2 4 3l0 112c-53-21-127-32-208-32-18 0-35 0-51 1 46-32 85-74 112-124l0 0z m32-81c7-28 11-58 11-88 0-12 0-23-2-34 23 4 44 9 61 14 19 7 33 14 41 20 2 2 3 3 4 4l0 112c-32-13-71-22-115-28l0 0z m-92-338c62 0 121 8 162 22 19 6 33 13 41 20 2 1 3 2 4 3l0 113c-34-14-77-24-125-29-18-49-46-93-82-129l0 0z m-112-76c-43-18-90-28-139-28-196 0-354 158-354 354 0 181 136 331 312 352l0 85c0 82 131 125 292 125 161 0 292-43 292-125l0-645c0-82-131-126-292-126-39 0-77 3-111 8l0 0z m-97 746c0-1 2-2 3-3 9-7 23-14 41-20 42-14 101-22 164-22 63 0 121 8 163 22 19 6 33 13 41 20 2 1 3 2 4 3l0 14c-1 1-2 2-4 3-8 7-22 14-41 20-42 14-100 22-163 22-63 0-122-8-164-22-18-6-32-13-41-20-1-1-3-2-3-3l0-14 0 0z m-42-691c149 0 271 121 271 271 0 149-122 271-271 271-150 0-271-122-271-271 0-150 121-271 271-271z" horiz-adv-x="1000" />

<glyph glyph-name="color-picker" unicode="&#xe84c;" d="M746 371l54-54a42 42 0 0 0-59-59l-53 54-408-408a42 42 0 0 0-30-12h-167a42 42 0 0 0-41 41v167a42 42 0 0 0 12 30l408 408-54 53a42 42 0 0 0 59 59l54-54 155 156c33 32 91 56 137 56a146 146 0 0 0 145-145c0-46-24-104-56-137l-156-155z m-58 59l155 155c17 17 32 54 32 78a63 63 0 0 1-62 62c-24 0-61-15-78-32l-155-155 108-108z m-59-59l-108 108-396-396v-108h108l396 396z" horiz-adv-x="1000" />

<glyph glyph-name="colors" unicode="&#xe84d;" d="M210 468c-1 9-2 19-2 28 0 161 131 292 292 292s292-131 292-292c0-9-1-19-2-28 100-46 168-147 168-264 0-161-130-292-291-292-62 0-120 20-167 53a290 290 0 0 0-167-53c-161 0-291 131-291 292 0 117 68 218 168 264z m20-83a208 208 0 0 1-105-181c0-115 93-208 208-208 38 0 74 10 105 28a290 290 0 0 0-63 180c0 9 0 19 1 28a293 293 0 0 0-146 153z m228-178l0-3c0-115 94-208 209-208s208 93 208 208c0 78-42 145-105 181-44-106-148-181-270-181-14 0-28 1-42 3z m42 81c115 0 208 93 208 208s-93 208-208 208-208-93-208-208 93-208 208-208z" horiz-adv-x="1000" />

<glyph glyph-name="compass" unicode="&#xe84e;" d="M500-108c-253 0-458 205-458 458 0 253 205 458 458 458 253 0 458-205 458-458 0-253-205-458-458-458z m0 83c207 0 375 168 375 375 0 207-168 375-375 375-207 0-375-168-375-375 0-207 168-375 375-375z m-116 519l292 84c32 9 61-20 52-52l-84-292c-4-13-14-24-28-28l-292-84c-31-8-60 21-52 52l84 292c4 14 15 24 28 28z m-11-271l198 57 56 197-197-56-57-198z m127 85c-23 0-42 19-42 42 0 23 19 42 42 42 23 0 42-19 42-42 0-23-19-42-42-42z" horiz-adv-x="1000" />

<glyph glyph-name="coordinate" unicode="&#xe84f;" d="M873 308c-19-173-157-312-331-331v-44a42 42 0 1 0-84 0v44c-173 19-311 158-331 331h-44a42 42 0 1 0 0 84h44c20 174 158 312 331 331v44a42 42 0 1 0 84 0v-44c174-19 312-157 331-331h44a42 42 0 1 0 0-84h-44z m-373-250c161 0 292 131 292 292s-131 292-292 292-292-131-292-292 131-292 292-292z m0 125a167 167 0 1 0 0 334 167 167 0 0 0 0-334z m0 84a83 83 0 1 1 0 166 83 83 0 0 1 0-166z" horiz-adv-x="1000" />

<glyph glyph-name="crown" unicode="&#xe850;" d="M875 158v-100a104 104 0 0 0-104-104h-542a104 104 0 0 0-104 104v100l-81 359c-14 73 46 111 105 67l154-115c7-6 13-4 18 4l113 226c31 62 101 62 132 0l114-226c4-8 10-10 17-4l154 115c59 44 119 6 105-67l-81-359z m-675 46h600l64 286-117-88c-49-37-114-21-142 33l-105 210-105-210c-27-54-93-70-142-33l-117 88 64-286z m8-146a21 21 0 0 1 21-20h542a21 21 0 0 1 21 20v63h-584v-63z" horiz-adv-x="1000" />

<glyph glyph-name="cup-1" unicode="&#xe851;" d="M745 233c-29-45-71-82-120-105l0-30c48-10 83-52 83-102l0-63c0-23-18-41-41-41l-334 0c-23 0-41 18-41 41l0 63c0 50 35 92 83 102l0 30c-49 23-91 60-120 106-128 81-213 224-213 387 0 57 46 104 104 104l64 0c10 48 52 83 102 83l376 0c50 0 92-35 102-83l64 0c58 0 104-47 104-104 0-163-85-306-213-388l0 0z m-537 409l-62 0c-12 0-21-10-21-21 0-89 31-172 83-236 0 2 0 5 0 7l0 250 0 0z m584 0l0-250c0-2 0-5 0-7 52 64 83 146 83 236 0 11-9 21-21 21l-62 0 0 0z m-334-539l0-45c0-23-18-41-41-41l-21 0c-12 0-21-10-21-21l0-21 250 0 0 21c0 11-9 21-21 21l-21 0c-23 0-41 18-41 41l0 45c-14-2-28-3-42-3-14 0-28 1-42 3l0 0z m-166 601l0-312c0-115 93-209 208-209 115 0 208 94 208 209l0 312c0 12-9 21-20 21l-376 0c-11 0-20-9-20-21z m208-300l-61-30c-14-7-22-1-20 13l12 66-50 46c-10 10-7 20 8 22l68 10 31 59c7 13 18 13 24 0l31-59 68-10c15-2 19-12 8-22l-50-46 12-66c3-14-6-20-20-13l-61 30z" horiz-adv-x="1000" />

<glyph glyph-name="dashboard-1" unicode="&#xe852;" d="M385 398l-111 110a42 42 0 0 0 59 59l107-107a125 125 0 1 0-55-62z m115-506c-253 0-458 205-458 458s205 458 458 458 458-205 458-458-205-458-458-458z m0 83c207 0 375 168 375 375s-168 375-375 375-375-168-375-375 168-375 375-375z m0 333a42 42 0 1 1 0 84 42 42 0 0 1 0-84z m-42 313a42 42 0 1 0 84 0v-42a42 42 0 1 0-84 0v42z m-229-313a42 42 0 1 0 0 84h42a42 42 0 1 0 0-84h-42z m500 0a42 42 0 1 0 0 84h42a42 42 0 1 0 0-84h-42z m-71 259a42 42 0 0 0 59-59l-29-29a42 42 0 1 0-59 59l29 29z" horiz-adv-x="1000" />

<glyph glyph-name="delivery-1" unicode="&#xe853;" d="M410 79a125 125 0 0 0-236 0h-28a104 104 0 0 0-104 105v416c0 57 46 104 104 104h438a104 104 0 0 0 104-104v-21h125a42 42 0 0 0 32-15l104-125a42 42 0 0 0 9-26v-230a104 104 0 0 0-104-104h-7a125 125 0 0 0-236 0h-201z m0 84h194v437a21 21 0 0 1-20 21h-438a21 21 0 0 1-21-21v-416c0-12 9-21 21-21h28a125 125 0 0 0 236 0z m437 0h7a21 21 0 0 1 21 20v214l-82 99h-105v-257a125 125 0 0 0 159-76z m-118-84a42 42 0 1 1 0 84 42 42 0 0 1 0-84z m-437 0a42 42 0 1 1 0 84 42 42 0 0 1 0-84z" horiz-adv-x="1000" />

<glyph glyph-name="diamond-1" unicode="&#xe854;" d="M151 558h131l50 167h-98l-83-167z m268 167l-50-167h263l-50 167h-163z m250 0l50-167h130l-83 167h-97z m167-250h-119l-121-336 240 336z m-432-336l-121 336h-119l240-336z m-196 669h584a42 42 0 0 0 37-23l125-250a42 42 0 0 0-3-42l-417-584a42 42 0 0 0-68 0l-417 584a42 42 0 0 0-3 42l125 250a42 42 0 0 0 37 23z m292-689l128 356h-256l128-356z" horiz-adv-x="1000" />

<glyph glyph-name="dollar-1" unicode="&#xe855;" d="M542 375c127-66 177-109 186-195 11-98-72-185-186-202v-45a42 42 0 1 0-84 0v45c-43 6-82 21-118 43-28 17-47 35-59 48a42 42 0 0 0 63 55c1-1 4-5 9-9 9-8 19-16 31-23a223 223 0 0 1 74-30v263c-127 66-177 109-186 195-11 98 72 185 186 202v45a42 42 0 1 0 84 0v-45c43-6 82-21 118-43 28-17 47-35 59-48a42 42 0 0 0-63-55 125 125 0 0 1-9 9 228 228 0 0 1-31 23 223 223 0 0 1-74 30v-263z m0-312c66 14 109 61 103 108-4 41-31 69-103 110v-218z m-84 574c-66-14-109-61-103-108 4-41 31-69 103-110v218z" horiz-adv-x="1000" />

<glyph glyph-name="dollar-2" unicode="&#xe856;" d="M500-108c-253 0-458 205-458 458s205 458 458 458 458-205 458-458-205-458-458-458z m0 83c207 0 375 168 375 375s-168 375-375 375-375-168-375-375 168-375 375-375z m42 151v-47a42 42 0 1 0-84 0v47a188 188 0 0 0-57 24c-17 10-29 21-36 30a42 42 0 0 0 62 55c3-3 9-9 19-15 16-10 34-16 54-16 39 0 65 23 62 44-2 18-19 33-74 62l-7 3a43 43 0 0 0-1 0l-6 4c-81 41-113 68-119 127-7 61 39 114 103 130v47a42 42 0 1 0 84 0v-47a188 188 0 0 0 57-24c17-10 29-21 37-30a42 42 0 0 0-63-55c-3 3-9 9-19 15-16 10-34 16-54 16-39 0-65-23-62-43 2-19 19-34 75-63a53309 53309 0 0 0 13-6c81-42 113-69 119-127 7-62-39-115-103-131z" horiz-adv-x="1000" />

<glyph glyph-name="double-arrow-down-1" unicode="&#xe857;" d="M113 442l387-387 387 387c17 16 43 16 59 0 16-16 16-43 0-59l-416-417c-17-16-43-16-59 0l-417 417c-16 16-16 43 0 59 16 16 43 16 59 0z m0 292l387-388 387 388c17 16 43 16 59 0 16-17 16-43 0-59l-416-417c-17-16-43-16-59 0l-417 417c-16 16-16 42 0 59 16 16 43 16 59 0z" horiz-adv-x="1000" />

<glyph glyph-name="double-arrow-left-1" unicode="&#xe858;" d="M592 737l-387-387 387-387a42 42 0 0 0-59-59l-417 417a42 42 0 0 0 0 59l417 416a42 42 0 0 0 59-59z m292 0l-388-387 388-387a42 42 0 0 0-59-59l-417 417a42 42 0 0 0 0 59l417 416a42 42 0 0 0 59-59z" horiz-adv-x="1000" />

<glyph glyph-name="double-arrow-right-1" unicode="&#xe859;" d="M116-37l388 387-388 387a42 42 0 1 0 59 59l417-416a42 42 0 0 0 0-59l-417-417a42 42 0 0 0-59 59z m292 0l387 387-387 387a42 42 0 0 0 59 59l417-416a42 42 0 0 0 0-59l-417-417a42 42 0 0 0-59 59z" horiz-adv-x="1000" />

<glyph glyph-name="double-arrow-up-1" unicode="&#xe85a;" d="M887-34l-387 388-387-388a42 42 0 0 0-59 59l417 417a42 42 0 0 0 59 0l416-417a42 42 0 0 0-59-59z m0 292l-387 387-387-387a42 42 0 0 0-59 59l417 417a42 42 0 0 0 59 0l416-417a42 42 0 0 0-59-59z" horiz-adv-x="1000" />

<glyph glyph-name="download-1" unicode="&#xe85b;" d="M458 284l0 0 0 483c0 23 19 41 42 41 23 0 42-18 42-41l0-483 158 158c16 16 42 16 59 0 16-16 16-43 0-59l-229-229c-17-16-43-16-59 0l-230 229c-16 16-16 43 0 59 17 16 43 16 59 0l158-158z m417 108c0 23 19 41 42 41 23 0 41-18 41-41l0-396c0-58-46-104-104-104l-708 0c-58 0-104 46-104 104l0 396c0 23 18 41 41 41 23 0 42-18 42-41l0-396c0-12 9-21 21-21l708 0c12 0 21 9 21 21l0 396z" horiz-adv-x="1000" />

<glyph glyph-name="edit-1" unicode="&#xe85c;" d="M635 593l-343-344v-107h107l344 343-108 108z m59 59l108-108 56 56-108 108-56-56z m86 144l166-166a42 42 0 0 0 0-59l-500-500a42 42 0 0 0-29-13h-167a42 42 0 0 0-42 42v167a42 42 0 0 0 13 29l500 500a42 42 0 0 0 59 0z m-655-821h708v333a42 42 0 1 0 84 0v-375a42 42 0 0 0-42-41h-792a42 42 0 0 0-41 41v792a42 42 0 0 0 41 42h375a42 42 0 1 0 0-84h-333v-708z" horiz-adv-x="1000" />

<glyph glyph-name="edit-ruler" unicode="&#xe85d;" d="M635 593l-510-510v-108h108l510 510-108 108z m59 59l108-108 56 56-108 108-56-56z m-194-76l221 220a42 42 0 0 0 59 0l166-166a42 42 0 0 0 0-59l-220-221 220-220a42 42 0 0 0 0-59l-166-167a42 42 0 0 0-59 0l-221 220-220-220a42 42 0 0 0-30-12h-167a42 42 0 0 0-41 41v167a42 42 0 0 0 12 30l220 220-220 221a42 42 0 0 0 0 59l167 166a42 42 0 0 0 59 0l220-220z m-59-59l-191 191-108-108 191-191 108 108z m226-226l-108-108 191-191 108 108-191 191z" horiz-adv-x="1000" />

<glyph glyph-name="edit-write" unicode="&#xe85e;" d="M635 593l-510-510v-108h108l510 510-108 108z m59 59l108-108 56 56-108 108-56-56z m86 144l166-166a42 42 0 0 0 0-59l-666-667a42 42 0 0 0-30-12h-167a42 42 0 0 0-41 41v167a42 42 0 0 0 12 30l667 666a42 42 0 0 0 59 0z m137-821a42 42 0 1 0 0-83h-417a42 42 0 1 0 0 83h417z" horiz-adv-x="1000" />

<glyph glyph-name="education" unicode="&#xe85f;" d="M188 346l-97 43c-66 30-66 101 0 130l331 149c45 20 111 20 156 0l331-149c66-29 66-100 0-130l-96-43v-173c0-96-143-156-313-156s-312 60-312 156v173z m541-38l-151-68c-45-20-111-20-156 0l-151 68v-135c0-10 17-27 54-43 45-19 108-30 175-30 68 0 130 11 175 30 37 16 54 33 54 43v135z m-186 284c-22 11-64 11-86 0l-308-138 308-138c22-10 64-10 86 0l308 138-308 138z" horiz-adv-x="1000" />

<glyph glyph-name="enlarge" unicode="&#xe860;" d="M816 725h-191a42 42 0 1 0 0 83h292a42 42 0 0 0 41-41v-292a42 42 0 1 0-83 0v191l-220-220a42 42 0 0 0-59 59l220 220z m-691-59v-191a42 42 0 1 0-83 0v292a42 42 0 0 0 41 41h292a42 42 0 1 0 0-83h-191l221-220a42 42 0 0 0-59-59l-221 220z m691-691l-220 221a42 42 0 0 0 59 59l220-221v191a42 42 0 1 0 83 0v-292a42 42 0 0 0-41-41h-292a42 42 0 1 0 0 83h191z m-691 59l221 221a42 42 0 0 0 59-59l-221-221h191a42 42 0 1 0 0-83h-292a42 42 0 0 0-41 41v292a42 42 0 1 0 83 0v-191z" horiz-adv-x="1000" />

<glyph glyph-name="envelope-open-message" unicode="&#xe861;" d="M116 585l51 30v89a104 104 0 0 0 104 104h458a104 104 0 0 0 104-104v-89l52-30c42-26 73-82 73-131v-458a104 104 0 0 0-104-104h-708c-58 0-104 46-104 104v459c0 49 32 104 74 130z m51-67l-9-5c-17-10-33-39-33-58v-22c0-19 16-48 33-59l9-4v148z m666 0v-148l9 4c17 11 33 40 33 59v22c0 19-16 48-33 58l-9 5z m42-221l-353-212a42 42 0 0 0-43 0l-354 212v-301c0-12 9-21 21-21h708a21 21 0 0 1 21 21v301z m-125 407a21 21 0 0 1-21 21h-458c-12 0-21-9-21-21v-384l250-151 250 151v384z m-375-187a42 42 0 1 0 0 83h250a42 42 0 1 0 0-83h-250z m0-125a42 42 0 1 0 0 83h250a42 42 0 1 0 0-83h-250z" horiz-adv-x="1000" />

<glyph glyph-name="envelope-open" unicode="&#xe862;" d="M42-4v459c0 49 32 104 74 130l363 217a42 42 0 0 0 42 0l364-217c42-26 73-82 73-131v-458a104 104 0 0 0-104-104h-708c-58 0-104 46-104 104z m833 301l-353-226a40 40 0 0 0-43 0l-354 226v-321c0-12 9-22 21-22h708c12 0 21 10 21 22v321z m-717 216c-17-10-33-39-33-58v-22c0-19 16-48 33-59l342-205 342 205c17 11 33 39 33 59v21c0 20-16 49-33 59l-342 205-342-205z" horiz-adv-x="1000" />

<glyph glyph-name="envelope" unicode="&#xe863;" d="M42 579a104 104 0 0 0 104 104h708c58 0 104-46 104-104v-458a104 104 0 0 0-104-104h-708c-58 0-104 46-104 104v458z m833-157l-353-212a42 42 0 0 0-43 0l-354 212v-301c0-11 9-21 21-21h708a21 21 0 0 1 21 21v301z m-33 77c17 11 33 39 33 59v21a21 21 0 0 1-21 21h-708a21 21 0 0 1-21-21v-21c0-19 16-48 33-59l342-205 342 205z" horiz-adv-x="1000" />

<glyph glyph-name="equalizer" unicode="&#xe864;" d="M688 350v-229a42 42 0 1 0-84 0v229c-57 0-104 47-104 104v84c0 57 47 104 104 104h84c57 0 104-47 104-104v-84c0-57-47-104-104-104z m-292 0c57 0 104-47 104-104v-83c0-58-47-105-104-105h-83c-58 0-105 47-105 105v83c0 57 47 104 105 104v229a42 42 0 1 0 83 0v-229z m-354 354a104 104 0 0 0 104 104h708a104 104 0 0 0 104-104v-708a104 104 0 0 0-104-104h-708a104 104 0 0 0-104 104v708z m83 0v-708c0-12 9-21 21-21h708c12 0 21 9 21 21v708c0 12-9 21-21 21h-708c-12 0-21-9-21-21z m167-458v-83c0-12 9-21 21-21h83c11 0 21 9 21 21v83c0 11-10 21-21 21h-83c-12 0-21-10-21-21z m291 292v-84c0-11 10-21 21-21h84c11 0 20 10 20 21v84c0 11-9 20-20 20h-84c-11 0-21-9-21-20z" horiz-adv-x="1000" />

<glyph glyph-name="error-1" unicode="&#xe865;" d="M500 409l-387 387a42 42 0 1 1-59-59l387-387-387-387a42 42 0 0 1 59-59l387 387 387-387a42 42 0 0 1 59 59l-387 387 387 387a42 42 0 0 1-59 59l-387-387z" horiz-adv-x="1000" />

<glyph glyph-name="error-2" unicode="&#xe866;" d="M749 779c40 39 104 39 144 0l35-35a101 101 0 0 0 1-144l-250-250 249-250a101 101 0 0 0 1-144l-36-35c-40-39-104-39-144 0l-249 250-249-250c-40-39-104-39-144 0l-35 35a101 101 0 0 0 0 144l249 250-249 250a101 101 0 0 0 0 144l35 35c40 39 104 39 144 0l249-250 249 250z m-278-338l-279 279a19 19 0 0 1-26 0l-36-35a18 18 0 0 1 1-26l279-279a42 42 0 0 0 0-59l-280-280a18 18 0 0 1 0-25l36-36a19 19 0 0 1 26 0l279 279a42 42 0 0 0 59 0l278-279a19 19 0 0 1 26 0l36 36a18 18 0 0 1 0 25l-280 280a42 42 0 0 0 0 59l280 279a18 18 0 0 1 0 26l-36 35a19 19 0 0 1-26 0l-278-279a42 42 0 0 0-59 0z" horiz-adv-x="1000" />

<glyph glyph-name="error-3" unicode="&#xe867;" d="M500-108c-253 0-458 205-458 458s205 458 458 458 458-205 458-458-205-458-458-458z m0 83c207 0 375 168 375 375s-168 375-375 375-375-168-375-375 168-375 375-375z m0 434l137 137a42 42 0 0 0 59-59l-137-137 137-137a42 42 0 0 0-59-59l-137 137-137-137a42 42 0 0 0-59 59l137 137-137 137a42 42 0 0 0 59 59l137-137z" horiz-adv-x="1000" />

<glyph glyph-name="error-4" unicode="&#xe868;" d="M333 808h355a42 42 0 0 0 30-13l229-250a42 42 0 0 0 11-28v-334a42 42 0 0 0-11-28l-229-250a42 42 0 0 0-30-13h-355a42 42 0 0 0-29 12l-250 250a42 42 0 0 0-12 29v334a42 42 0 0 0 12 29l250 250a42 42 0 0 0 29 12z m-208-309v-298l226-226h318l206 225v301l-206 224h-318l-226-226z m375-90l116 116a42 42 0 0 0 59-59l-116-116 116-116a42 42 0 0 0-59-59l-116 116-116-116a42 42 0 0 0-59 59l116 116-116 116a42 42 0 0 0 59 59l116-116z" horiz-adv-x="1000" />

<glyph glyph-name="error-5" unicode="&#xe869;" d="M130 32c-9-15-8-15 10-15h720c18 0 19 0 10 15l-362 640c-9 15-7 15-15 0l-363-640z m450 682l363-641c40-71-1-140-83-140h-720c-82 0-123 69-83 140l363 641c40 70 120 70 160 0z m-80-635a42 42 0 1 1 0 84 42 42 0 0 1 0-84z m-42 375v-208a42 42 0 1 1 84 0v208a42 42 0 1 1-84 0z" horiz-adv-x="1000" />

<glyph glyph-name="euro-1" unicode="&#xe86a;" d="M169 308c-3 28-3 56 0 84h-86a42 42 0 1 0 0 83h101a457 457 0 0 0 116 199c179 179 468 179 646 0a42 42 0 1 0-59-59c-146 147-382 147-528 0a374 374 0 0 1-88-140h312a42 42 0 1 0 0-83h-331a379 379 0 0 1 0-84h248a42 42 0 1 0 0-83h-229a374 374 0 0 1 88-140c146-147 382-147 528 0a42 42 0 1 0 59-59c-178-179-467-179-646 0a457 457 0 0 0-116 199h-101a42 42 0 1 0 0 83h86z" horiz-adv-x="1000" />

<glyph glyph-name="euro-2" unicode="&#xe86b;" d="M500-108c-253 0-458 205-458 458s205 458 458 458 458-205 458-458-205-458-458-458z m0 83c207 0 375 168 375 375s-168 375-375 375-375-168-375-375 168-375 375-375z m-228 354a252 252 0 0 0 0 42h-22a42 42 0 1 0 0 83h43a250 250 0 0 0 51 73 249 249 0 0 0 352 0 42 42 0 1 0-59-59 165 165 0 0 1-246-14h109a42 42 0 1 0 0-83h-144a169 169 0 0 1 0-42h102a42 42 0 1 0 0-83h-67a165 165 0 0 1 246-14 42 42 0 1 0 59-59 249 249 0 0 0-352 0 250 250 0 0 0-51 73h-43a42 42 0 1 0 0 83h22z" horiz-adv-x="1000" />

<glyph glyph-name="eye" unicode="&#xe86c;" d="M46 333c-6 11-6 23 0 35 82 178 258 295 454 295 196 0 372-117 455-295 5-12 5-24 0-35-83-179-259-295-455-295-196 0-372 116-454 295z m454-212c157 0 298 89 370 229-72 140-213 229-370 229-157 0-298-89-370-229 72-140 213-229 370-229z m3 417c26-1 45-25 40-50-1-4-1-9-1-13 0-34 28-62 62-62 8 0 16 1 24 4 24 10 51-5 56-31 2-11 4-24 4-36 0-104-84-187-188-187-104 0-187 83-187 187 0 104 83 188 187 188 1 0 1 0 3 0z m-107-188c0-57 47-104 104-104 50 0 92 36 102 83-70 1-128 51-141 118-38-16-65-53-65-97z" horiz-adv-x="1000" />

<glyph glyph-name="favorite" unicode="&#xe86d;" d="M277 1l204 106a42 42 0 0 0 38 0l204-106c2-2 4-3 6-3a63 63 0 0 1 0 7l-39 225a42 42 0 0 0 12 37l164 159c2 2 4 4 5 5a64 64 0 0 1-7 2l-227 33a42 42 0 0 0-32 22l-101 205a62 62 0 0 1-4 7 62 62 0 0 1-3-7l-102-205a42 42 0 0 0-32-22l-227-33c-3-1-5-1-7-2 1-1 3-3 5-5l164-159a42 42 0 0 0 12-37l-38-225c-1-3-1-5-1-7 2 0 4 1 6 3z m223 22l-184-96c-76-40-141 8-127 92l36 203-149 145c-62 59-36 136 48 148l206 30 92 185c38 77 118 77 156 0l92-185 206-30c85-12 110-89 48-148l-148-145 35-203c14-85-51-132-127-92l-184 96z" horiz-adv-x="1000" />

<glyph glyph-name="female" unicode="&#xe86e;" d="M219 128l107 107a353 353 0 0 0-76 219c0 196 159 354 354 354s354-158 354-354-158-354-354-354a353 353 0 0 0-219 76l-107-107 85-85a42 42 0 0 0-59-59l-85 85-106-106a42 42 0 0 0-59 59l106 106-85 85a42 42 0 0 0 59 59l85-85z m385 55c150 0 271 122 271 271s-121 271-271 271-271-121-271-271 122-271 271-271z" horiz-adv-x="1000" />

<glyph glyph-name="file-1" unicode="&#xe86f;" d="M280 683a104 104 0 0 0 95 63h9a104 104 0 0 0 95 62h42a104 104 0 0 0 95-62h9a104 104 0 0 0 96-63h29a104 104 0 0 0 104-104v-583a104 104 0 0 0-104-104h-500a104 104 0 0 0-104 104v583a104 104 0 0 0 104 104h30z m-7-83h-23c-11 0-21-9-21-21v-583a21 21 0 0 1 21-21h500c12 0 21 9 21 21v583a21 21 0 0 1-21 21h-23c-10-47-52-83-102-83h-250c-50 0-92 36-102 83z m144 63h-42a21 21 0 0 1-21-21v-21c0-12 10-21 21-21h250c11 0 21 10 21 21v21c0 11-9 21-21 21h-42a42 42 0 0 0-41 41c0 12-10 21-21 21h-42a21 21 0 0 1-21-21 42 42 0 0 0-41-41z" horiz-adv-x="1000" />

<glyph glyph-name="file-2" unicode="&#xe870;" d="M280 683a104 104 0 0 0 95 63h9a104 104 0 0 0 95 62h42a104 104 0 0 0 95-62h9a104 104 0 0 0 96-63h29a104 104 0 0 0 104-104v-583a104 104 0 0 0-104-104h-500a104 104 0 0 0-104 104v583a104 104 0 0 0 104 104h30z m-7-83h-23c-11 0-21-9-21-21v-583a21 21 0 0 1 21-21h500c12 0 21 9 21 21v583a21 21 0 0 1-21 21h-23c-10-47-52-83-102-83h-250c-50 0-92 36-102 83z m144 63h-42a21 21 0 0 1-21-21v-21c0-12 10-21 21-21h250c11 0 21 10 21 21v21c0 11-9 21-21 21h-42a42 42 0 0 0-41 41c0 12-10 21-21 21h-42a21 21 0 0 1-21-21 42 42 0 0 0-41-41z m-63-313a42 42 0 1 0 0 83h292a42 42 0 1 0 0-83h-292z m0-146a42 42 0 1 0 0 84h292a42 42 0 1 0 0-84h-292z m0-146a42 42 0 1 0 0 84h167a42 42 0 1 0 0-84h-167z" horiz-adv-x="1000" />

<glyph glyph-name="file-3" unicode="&#xe871;" d="M280 683a104 104 0 0 0 95 63h9a104 104 0 0 0 95 62h42a104 104 0 0 0 95-62h9a104 104 0 0 0 96-63h29a104 104 0 0 0 104-104v-583a104 104 0 0 0-104-104h-500a104 104 0 0 0-104 104v583a104 104 0 0 0 104 104h30z m-7-83h-23c-11 0-21-9-21-21v-583a21 21 0 0 1 21-21h500c12 0 21 9 21 21v583a21 21 0 0 1-21 21h-23c-10-47-52-83-102-83h-250c-50 0-92 36-102 83z m144 63h-42a21 21 0 0 1-21-21v-21c0-12 10-21 21-21h250c11 0 21 10 21 21v21c0 11-9 21-21 21h-42a42 42 0 0 0-41 41c0 12-10 21-21 21h-42a21 21 0 0 1-21-21 42 42 0 0 0-41-41z m-92-301a42 42 0 1 0 59 59 42 42 0 0 0-59-59z m154-12a42 42 0 1 0 0 83h167a42 42 0 1 0 0-83h-167z m-154-134a42 42 0 1 0 59 59 42 42 0 0 0-59-59z m154-12a42 42 0 1 0 0 84h167a42 42 0 1 0 0-84h-167z m-154-133a42 42 0 1 0 59 59 42 42 0 0 0-59-59z m154-13a42 42 0 1 0 0 84h167a42 42 0 1 0 0-84h-167z" horiz-adv-x="1000" />

<glyph glyph-name="filing-cabinet" unicode="&#xe872;" d="M875 392v312c0 12-9 21-21 21h-708c-12 0-21-9-21-21v-312h750z m0-84h-750v-312c0-12 9-21 21-21h708c12 0 21 9 21 21v312z m-833 396a104 104 0 0 0 104 104h708a104 104 0 0 0 104-104v-708a104 104 0 0 0-104-104h-708a104 104 0 0 0-104 104v708z m396-125a42 42 0 1 0 0 84h125a42 42 0 1 0 0-84h-125z m0-416a42 42 0 1 0 0 83h125a42 42 0 1 0 0-83h-125z" horiz-adv-x="1000" />

<glyph glyph-name="filter-1" unicode="&#xe873;" d="M847-4a125 125 0 0 0-236 0h-507a42 42 0 1 0 0 83h507a125 125 0 0 0 236 0h49a42 42 0 1 0 0-83h-49z m-159 42a42 42 0 1 1 83 0 42 42 0 0 1-83 0z m-70 583a125 125 0 0 0-236 0h-278a42 42 0 1 0 0 83h278a125 125 0 0 0 236 0h278a42 42 0 1 0 0-83h-278z m-160 42a42 42 0 1 1 84 0 42 42 0 0 1-84 0z m438-355h-507a125 125 0 0 0-236 0h-49a42 42 0 1 0 0 84h49a125 125 0 0 0 236 0h507a42 42 0 1 0 0-84z m-667 42a42 42 0 1 1 84 0 42 42 0 0 1-84 0z" horiz-adv-x="1000" />

<glyph glyph-name="filter-2" unicode="&#xe874;" d="M646 316l0-267c0-41-28-82-65-97l-131-54c-49-21-96 12-96 65l0 353-249 359c-47 64-13 133 67 133l657 0c79 0 113-68 66-132l-249-360z m-208-334l112 47c5 2 13 13 13 20l0 280c0 9 2 17 7 24l257 371c1 1-655 1-655 1 0 0 258-372 258-372 5-7 8-15 8-24l0-347z" horiz-adv-x="1000" />

<glyph glyph-name="filter-3" unicode="&#xe875;" d="M83 642a42 42 0 1 0 0 83h834a42 42 0 1 0 0-83h-834z m125-229a42 42 0 1 0 0 83h584a42 42 0 1 0 0-83h-584z m125-230a42 42 0 1 0 0 84h334a42 42 0 1 0 0-84h-334z m125-208a42 42 0 1 0 0 83h84a42 42 0 1 0 0-83h-84z" horiz-adv-x="1000" />

<glyph glyph-name="flag-1" unicode="&#xe876;" d="M333 267v-271a104 104 0 0 0-104-104h-41c-58 0-105 46-105 104v292a104 104 0 0 0-41 83v333a104 104 0 0 0 104 104h771c31 0 51-33 36-61l-114-209 114-210c15-27-5-61-36-61h-584z m-187 458c-12 0-21-9-21-21v-333c0-12 9-21 21-21h701l-92 168a42 42 0 0 0 0 40l92 167h-701z m21-729c0-12 9-21 21-21h41a21 21 0 0 1 21 21v271h-83v-271z" horiz-adv-x="1000" />

<glyph glyph-name="flag-2" unicode="&#xe877;" d="M42-67v834a42 42 0 0 0 41 41h500a42 42 0 0 0 42-41v-125h292c34 0 54-39 33-67l-106-142 106-141c21-28 1-67-33-67h-459a42 42 0 0 0-41 42v125h-292v-459a42 42 0 1 0-83 0z m583 625v-125a42 42 0 0 0-42-41h-83v-84h333l-75 100a42 42 0 0 0 0 50l75 100h-208z m-500-83h417v250h-417v-250z" horiz-adv-x="1000" />

<glyph glyph-name="flash-card" unicode="&#xe878;" d="M792 473c47-10 83-52 83-102v-375a104 104 0 0 0-104-104h-542a104 104 0 0 0-104 104v375a104 104 0 0 0 83 102v294a42 42 0 0 0 42 41h500a42 42 0 0 0 42-41v-294z m-500 2h416v250h-416v-250z m-84-104v-375c0-12 10-21 21-21h542a21 21 0 0 1 21 21v375a21 21 0 0 1-21 21h-542a21 21 0 0 1-21-21z m167 250a42 42 0 1 0 83 0v-42a42 42 0 1 0-83 0v42z m167 0a42 42 0 1 0 83 0v-42a42 42 0 1 0-83 0v42z" horiz-adv-x="1000" />

<glyph glyph-name="flight" unicode="&#xe879;" d="M385 226l-309-103a42 42 0 0 0-55 40v145a42 42 0 0 0 21 37l325 186-7 135c-5 78 56 142 135 142h11c78 0 139-64 134-142l-7-135 325-186a42 42 0 0 0 21-37v-145a42 42 0 0 0-55-40l-308 103-7-106 96-45a42 42 0 0 0 24-37v-105a42 42 0 0 0-50-40l-179 39-178-39a42 42 0 0 0-51 40v105a42 42 0 0 0 24 37l96 45-6 106z m-281-6l306 102a42 42 0 0 0 54-37l12-188a42 42 0 0 0-24-40l-98-46v-26l137 31a42 42 0 0 0 18 0l137-31v26l-98 46a42 42 0 0 0-24 40l12 188a42 42 0 0 0 55 37l305-102v64l-327 187a42 42 0 0 0-21 38l9 161c2 31-21 55-51 55h-11c-31 0-54-24-52-55l9-161a42 42 0 0 0-21-38l-327-187v-64z" horiz-adv-x="1000" />

<glyph glyph-name="folder-1" unicode="&#xe87a;" d="M146 725c-12 0-21-9-21-21l0-708c0-12 9-21 21-21l708 0c12 0 21 9 21 21l0 542c0 11-9 20-21 20l-312 0c-13 0-26 7-34 17l-112 150-250 0z m708-83c58 0 104-47 104-104l0-542c0-58-46-104-104-104l-708 0c-58 0-104 46-104 104l0 708c0 58 46 104 104 104l271 0c13 0 25-6 33-16l113-150 291 0z" horiz-adv-x="1000" />

<glyph glyph-name="folder-2" unicode="&#xe87b;" d="M146 808h437a42 42 0 0 0 34-16l112-150h125a104 104 0 0 0 104-104v-542a104 104 0 0 0-104-104h-708a104 104 0 0 0-104 104v708a104 104 0 0 0 104 104z m271-83l62-83h146l-62 83h-146z m-271 0c-12 0-21-9-21-21v-708c0-12 9-21 21-21h708a21 21 0 0 1 21 21v542a21 21 0 0 1-21 20h-396a42 42 0 0 0-33 17l-112 150h-167z" horiz-adv-x="1000" />

<glyph glyph-name="folder-3" unicode="&#xe87c;" d="M875 517v62a21 21 0 0 1-21 21h-354a42 42 0 0 0-35 19l-71 106h-248c-12 0-21-9-21-21v-187h750z m0-84h-750v-437c0-12 9-21 21-21h708c12 0 21 9 21 21v437z m-21 250c58 0 104-46 104-104v-583a104 104 0 0 0-104-104h-708a104 104 0 0 0-104 104v708a104 104 0 0 0 104 104h271a42 42 0 0 0 34-18l71-107h332z" horiz-adv-x="1000" />

<glyph glyph-name="folder-4" unicode="&#xe87d;" d="M188 371v125a42 42 0 0 0 41 42h542a42 42 0 0 0 42-42v-125h62v208a21 21 0 0 1-21 21h-354a42 42 0 0 0-35 19l-71 106h-248c-12 0-21-9-21-21v-333h63z m687-83h-750v-292c0-12 9-21 21-21h708c12 0 21 9 21 21v292z m-21 395c58 0 104-46 104-104v-583a104 104 0 0 0-104-104h-708a104 104 0 0 0-104 104v708a104 104 0 0 0 104 104h271a42 42 0 0 0 34-18l71-107h332z m-583-229v-83h458v83h-458z" horiz-adv-x="1000" />

<glyph glyph-name="folder-5" unicode="&#xe87e;" d="M875 475c57-4 95-55 81-112l-68-295c-12-52-63-93-117-93h-542c-54 0-105 41-117 93l-68 295c-13 57 24 108 81 112v146a104 104 0 0 0 104 104h204a42 42 0 0 0 35-18l54-82h249a104 104 0 0 0 104-104v-46z m-83 0v46c0 11-10 21-21 21h-271a42 42 0 0 0-35 18l-54 82h-182a21 21 0 0 1-21-21v-146h584z m-599-388c4-15 21-29 36-29h542c15 0 32 14 36 29l68 295c2 7 0 10-8 10h-734c-8 0-10-3-8-10l68-295z" horiz-adv-x="1000" />

<glyph glyph-name="folder-6" unicode="&#xe87f;" d="M792 433l86 0c66 0 100-58 68-116l-149-266c-6-11-14-21-23-31-19-27-51-45-86-45l-566 0c-55 0-88 40-79 87-1 6-1 11-1 17l0 542c0 57 46 104 104 104l204 0c14 0 27-7 35-19l54-81 248 0c58 0 105-47 105-104l0-88z m-84 0l0 88c0 11-9 21-21 21l-270 0c-14 0-27 7-35 18l-54 82-182 0c-12 0-21-10-21-21l0-402 78 139c24 43 79 75 129 75l376 0z m161-83l-537 0c-19 0-47-16-57-33l-144-259 537 0c20 0 47 17 57 34l144 258z" horiz-adv-x="1000" />

<glyph glyph-name="games-2" unicode="&#xe880;" d="M458 642v83a42 42 0 1 0 84 0v-83h125c161 0 291-131 291-292v-313a104 104 0 0 0-104-104h-83c-48 0-105 29-133 67l-63 83c-6 8-23 17-33 17h-84c-10 0-27-9-33-17l-62-83c-29-38-86-67-134-67h-83a104 104 0 0 0-104 104v313c0 161 130 292 292 292h124z m209-84h-333a208 208 0 0 1-209-208v-313c0-11 9-20 21-20h83c22 0 54 16 67 33l62 83c22 29 64 50 100 50h84c36 0 78-21 100-50l62-83c13-17 46-33 67-33h83a21 21 0 0 1 21 20v313a208 208 0 0 1-208 208z m-313-166h42a42 42 0 1 0 0-84h-42v-41a42 42 0 1 0-83 0v41h-42a42 42 0 1 0 0 84h42v41a42 42 0 1 0 83 0v-41z m334 21a42 42 0 1 0 0 83 42 42 0 0 0 0-83z m0-209a42 42 0 1 0 0 84 42 42 0 0 0 0-84z m-105 104a42 42 0 1 0 0 84 42 42 0 0 0 0-84z m209 0a42 42 0 1 0 0 84 42 42 0 0 0 0-84z" horiz-adv-x="1000" />

<glyph glyph-name="games" unicode="&#xe881;" d="M170 100l-116-116a42 42 0 0 1 59-59l116 116 117-116a42 42 0 0 1 59 59l-117 116 117 116a42 42 0 0 1-59 59l-117-116-116 116a42 42 0 0 1-59-59l116-116z m580 292c-115 0-208 93-208 208s93 208 208 208 208-93 208-208-93-208-208-208z m0 83a125 125 0 1 1 0 250 125 125 0 0 1 0-250z m-208-271c0 58 46 104 104 104h208c58 0 104-46 104-104v-208c0-58-46-104-104-104h-208a104 104 0 0 0-104 104v208z m83 0v-208c0-12 9-21 21-21h208c12 0 21 9 21 21v208c0 12-9 21-21 21h-208c-12 0-21-9-21-21z m-445 539c35 59 105 60 141 0l123-209c35-59 3-121-65-121h-257c-69 0-101 62-66 121l124 209z m-49-247h239l-120 202-119-202z" horiz-adv-x="1000" />

<glyph glyph-name="glasses" unicode="&#xe882;" d="M546 225c19 95 103 167 204 167 47 0 90-16 125-42v167a125 125 0 0 1-125 125 42 42 0 1 0 0 83c115 0 208-93 208-208v-334l0-1c0-115-93-207-208-207-101 0-185 72-204 167h-92c-19-95-103-167-204-167-115 0-208 93-208 208v334c0 115 93 208 208 208a42 42 0 1 0 0-83 125 125 0 0 1-125-125v-167a207 207 0 0 0 125 42c101 0 185-72 204-167h92z m-296-167a125 125 0 1 1 0 250 125 125 0 0 1 0-250z m500 0a125 125 0 1 1 0 250 125 125 0 0 1 0-250z" horiz-adv-x="1000" />

<glyph glyph-name="globe" unicode="&#xe883;" d="M127 308c13-117 81-219 177-278-41 74-68 171-74 278h-103z m0 84h103c6 107 33 204 74 278-96-59-164-160-177-278z m746 0c-13 118-81 219-177 278 42-74 68-171 74-278h103z m0-84h-103c-6-107-32-204-74-278 96 59 164 161 177 278z m-415-323v323h-144c9-160 71-287 144-323z m-144 407h144v323c-73-36-135-163-144-323z m228 323v-323h144c-9 160-71 287-144 323z m144-407h-144v-323c73 36 135 163 144 323z m-186-416c-253 0-458 205-458 458s205 458 458 458 458-205 458-458-205-458-458-458z" horiz-adv-x="1000" />

<glyph glyph-name="guard-1" unicode="&#xe884;" d="M188 639v-407c0-22 16-54 33-67l252-183c14-10 40-10 54 0l252 183c17 13 34 45 34 67v407c0 17-16 38-31 43l-3 0a319 319 0 0 1-18 7 709 709 0 0 1-56 14c-62 14-131 22-205 22-74 0-143-8-205-22a709 709 0 0 1-56-14c-9-3-16-5-18-7l-3-1c-16-4-30-25-30-42z m708 0v-407c0-49-29-106-68-135l-252-182c-43-31-109-31-152 0l-251 182c-40 29-69 87-69 135v407c0 53 38 106 88 122 17 6 46 15 85 24 68 15 142 23 223 23 81 0 155-8 223-23 39-9 69-18 85-24 50-17 88-70 88-122z" horiz-adv-x="1000" />

<glyph glyph-name="guard-2" unicode="&#xe885;" d="M896 639v-407c0-49-29-106-68-135l-252-182c-43-31-109-31-152 0l-251 182c-40 29-69 87-69 135v407c0 53 38 106 88 122 17 6 46 15 85 24 68 15 142 23 223 23 81 0 155-8 223-23 39-9 69-18 85-24 50-17 88-70 88-122z m-708 0v-407c0-22 16-54 33-67l252-183c14-10 40-10 54 0l252 183c17 13 34 45 34 67v407c0 17-16 38-31 43l-3 0a319 319 0 0 1-18 7 709 709 0 0 1-56 14c-62 14-131 22-205 22-74 0-143-8-205-22a709 709 0 0 1-56-14c-9-3-16-5-18-7l-3-1c-16-4-30-25-30-42z m175-239l75-74 199 199a42 42 0 0 0 59-59l-229-229a42 42 0 0 0-59 0l-104 104a42 42 0 0 0 59 59z" horiz-adv-x="1000" />

<glyph glyph-name="hand-dislike" unicode="&#xe886;" d="M83 788h639c38 0 79-24 98-56 6-9 15-25 27-48 19-39 38-84 56-137 2-5 4-11 6-17 19-57 32-106 40-147 5-23 7-40 8-50 11-70-41-129-112-129h-170l33-180a42 42 0 0 0 0-7 104 104 0 0 0-104-105h-62a42 42 0 0 0-38 25l-130 293a170 170 0 0 1-26 40 131 131 0 0 1-19 17 95 95 0 0 1-8 6 105 105 0 0 1-29 12 42 42 0 0 0-42-38h-167a42 42 0 0 0-41 41v438a42 42 0 0 0 41 42z m209-84v-314a189 189 0 0 0 73-26c5-3 10-7 15-10 11-9 21-19 31-30 20-22 33-45 39-62l119-266h35c11 0 19 8 21 18l-41 224a42 42 0 0 0 41 50h220c21 0 33 14 30 33l-1 4a180 180 0 0 1-1 9 543 543 0 0 1-6 33c-7 38-19 83-37 137a1240 1240 0 0 1-6 16c-16 49-34 91-52 126a625 625 0 0 1-17 32c-3 5-4 8-5 9l-1 2c-4 7-18 15-27 15h-430z m-167 0v-354h83v354h-83z" horiz-adv-x="1000" />

<glyph glyph-name="hand-forward" unicode="&#xe887;" d="M379 655l-34-68c-24-48-41-82-47-94-29-58-70-101-137-130-21-9-36-25-36-34v-271c0-11 9-20 21-20h338c7 0 19 7 23 12l1 2c1 2 2 5 5 9 5 8 10 18 16 30 16 33 33 73 49 119 1 5 3 11 5 16 11 35 21 68 28 96a42 42 0 0 0 37 32l204 13c12 1 23 12 23 25v20a21 21 0 0 1-21 21h-419a42 42 0 0 0-41 51l38 164a17 17 0 0 1-16 15h-33l-4-8z m475-138a104 104 0 0 0 104-105v-20c0-57-45-105-101-108l-173-11a1479 1479 0 0 0-27-90c-17-49-35-92-54-129-10-22-19-37-24-46-19-31-58-54-95-54h-338a104 104 0 0 0-104 104v271c0 51 38 90 86 111 47 20 75 49 96 91 6 11 23 45 47 93l33 68 11 22 5 9a42 42 0 0 0 37 23h59c55 0 100-45 100-101a42 42 0 0 0-1-9l-28-119h367z" horiz-adv-x="1000" />

<glyph glyph-name="hand-like" unicode="&#xe888;" d="M83-88a42 42 0 0 0-41 42v438a42 42 0 0 0 41 41h167a42 42 0 0 0 42-38c10 2 20 6 29 12 3 2 6 4 8 6 7 5 13 11 19 17a170 170 0 0 1 26 40l130 293a42 42 0 0 0 38 25h62a104 104 0 0 0 104-104 42 42 0 0 0 0-8l-33-180h170c71 0 123-59 112-129-1-10-3-27-8-50-8-41-21-90-40-147-2-6-4-11-6-17-18-52-37-98-56-137-12-23-21-39-27-48-19-32-60-56-98-56h-639z m209 84h430c9 0 23 8 27 15l1 2c0 1 2 4 5 9 5 9 11 19 17 32 18 35 36 77 52 126 2 5 4 11 6 16 18 54 30 100 37 137 3 13 5 24 6 33 1 5 1 8 1 9l1 4c3 19-9 34-30 34h-220a42 42 0 0 0-41 49l41 224a21 21 0 0 1-21 18h-35l-119-266c-6-17-19-39-39-62-10-11-20-21-31-29-5-4-10-8-15-11a189 189 0 0 0-62-24 199 199 0 0 0-11-2v-314z m-167 0h83v354h-83v-354z" horiz-adv-x="1000" />

<glyph glyph-name="hand-rock" unicode="&#xe889;" d="M704 605c5 44 44 78 88 78a104 104 0 0 0 104-104v-583c0-58-47-104-104-104h-271c-50 0-90 38-110 86-21 47-50 75-92 96-11 6-45 23-93 47l-68 33-22 11-9 4a42 42 0 0 0-23 38v59c0 55 46 100 101 100a42 42 0 0 0 9-1l119-28v367a104 104 0 0 0 105 104h20c57 0 105-45 108-101l11-173c23-6 47-13 73-22 14-4 27-9 40-14l14 107z m-509-376l68-34c49-24 82-41 94-47 58-29 101-70 130-137 9-21 25-36 34-36h271c11 0 21 9 21 21v583a21 21 0 0 1-21 21c-2 0-6-3-6-5l-20-160a42 42 0 0 0-57-33 1101 1101 0 0 1-85 31 1295 1295 0 0 1-96 28 42 42 0 0 0-32 37l-13 204c-1 12-12 23-25 23h-20a21 21 0 0 1-21-21v-419a42 42 0 0 0-51-41l-164 38a17 17 0 0 1-14-16v-33l7-4z" horiz-adv-x="1000" />

<glyph glyph-name="hand-tap-1" unicode="&#xe88a;" d="M195 229l68-34c49-24 82-41 94-47 58-29 101-70 130-137 9-21 25-36 34-36h271c11 0 21 9 21 21v338c0 7-8 19-13 23l-2 1c-1 1-4 2-9 5a592 592 0 0 1-30 16c-33 16-73 33-119 49-5 1-10 3-16 5a1295 1295 0 0 1-96 28 42 42 0 0 0-32 37l-13 204c-1 12-12 23-25 23h-20a21 21 0 0 1-21-21v-419a42 42 0 0 0-51-41l-164 38a17 17 0 0 1-14-16v-33l7-4z m138 108v367a104 104 0 0 0 105 104h20c57 0 105-45 108-101l11-173a1479 1479 0 0 0 90-27c49-17 92-35 129-54 22-10 37-19 46-24 31-19 54-58 54-95v-338c0-58-47-104-104-104h-271c-50 0-90 38-110 86-21 47-50 75-92 96-11 6-45 23-93 47l-68 33-22 11-9 4a42 42 0 0 0-23 38v59c0 55 46 100 101 100a42 42 0 0 0 9-1l119-28z" horiz-adv-x="1000" />

<glyph glyph-name="hand-tap-2" unicode="&#xe88b;" d="M362 354a240 240 0 0 0-133 215c0 132 107 239 240 239s239-107 239-239a239 239 0 0 0-48-144 914 914 0 0 0 106-44c18-9 32-17 39-21 29-17 49-53 49-86v-287a95 95 0 0 0-95-95h-231c-46 0-81 34-99 77-17 39-41 61-75 78-10 5-39 19-80 40l-58 28-19 10-7 3a42 42 0 0 0-23 38v50c0 50 41 91 92 91a42 42 0 0 0 9-1l94-21v69z m0 101v133a95 95 0 0 0 95 95h18c51 0 95-40 98-92l8-131a156 156 0 1 1-219-5z m-109-265l58-28c41-21 70-35 80-40 51-26 89-61 114-120 7-16 18-27 23-27h231a12 12 0 0 1 12 12v287c0 4-5 12-8 14l-2 1a195 195 0 0 1-7 4 499 499 0 0 1-25 13 839 839 0 0 1-101 42 1102 1102 0 0 1-95 27 42 42 0 0 0-32 38l-11 173c0 7-8 14-15 14h-18a12 12 0 0 1-11-12v-356a42 42 0 0 0-51-40l-139 31a8 8 0 0 1-6-7v-24l3-2z" horiz-adv-x="1000" />

<glyph glyph-name="headphones-1" unicode="&#xe88c;" d="M789 387c-18 144-141 255-289 255-148 0-271-111-289-255l11 3c60 12 111-30 111-91v-189c0-61-51-103-111-91l-85 17c-54 11-95 61-95 115v106c0 51 35 98 84 113 10 198 174 355 374 355 201 0 364-157 375-355 48-15 83-62 83-113v-106c0-54-41-104-94-115l-86-17c-60-12-111 30-111 91v189c0 61 51 103 111 91l11-3z m-664-130v-106c0-14 14-30 28-33l86-18c8-1 11 1 11 10v189c0 8-3 11-11 9l-86-17c-15-3-28-19-28-34z m750 0c0 15-13 31-28 34l-85 17c-9 2-12-1-12-9v-189c0-9 3-11 12-10l85 18c15 3 28 19 28 33v106z" horiz-adv-x="1000" />

<glyph glyph-name="headphones-2" unicode="&#xe88d;" d="M958 350v-354a104 104 0 0 0-104-104h-41a104 104 0 0 0-105 104v208a104 104 0 0 0 105 104h62v42c0 207-168 375-375 375-207 0-375-168-375-375v-42h63a104 104 0 0 0 104-104v-208a104 104 0 0 0-104-104h-42a104 104 0 0 0-104 104v354c0 253 205 458 458 458 253 0 458-205 458-458z m-833-125v-229a21 21 0 0 1 21-21h42c11 0 20 9 20 21v208a21 21 0 0 1-20 21h-63z m688 0c-12 0-21-9-21-21v-208a21 21 0 0 1 21-21h41c12 0 21 9 21 21v229h-62z" horiz-adv-x="1000" />

<glyph glyph-name="home" unicode="&#xe88e;" d="M417-67a42 42 0 0 0-42-41h-229a104 104 0 0 0-104 104v354c0 47 26 105 62 135l369 313a42 42 0 0 0 54 0l369-313c36-31 62-88 62-135v-354a104 104 0 0 0-104-104h-229a42 42 0 0 0-42 41v250h-166v-250z m437 42a21 21 0 0 1 21 21v354c0 22-16 57-33 71l-342 291-342-291c-17-14-33-49-33-71v-354a21 21 0 0 1 21-21h187v250a42 42 0 0 0 42 42h250a42 42 0 0 0 42-42v-250h187z" horiz-adv-x="1000" />

<glyph glyph-name="hourglass-1" unicode="&#xe88f;" d="M748 255c37-29 65-87 65-134v-125a104 104 0 0 0-105-104h-416a104 104 0 0 0-104 104v125c0 47 27 105 64 134l111 89c6 4 6 8 0 13l-111 88c-37 30-64 87-64 134v125a104 104 0 0 0 104 104h416a104 104 0 0 0 105-104v-125c0-47-28-104-65-134l-111-88c-6-5-6-9 0-13l111-89z m-163 167l111 88c17 14 33 47 33 69v125a21 21 0 0 1-21 21h-416c-12 0-21-9-21-21v-125c0-22 16-55 33-69l111-88c48-39 48-105 0-144l-111-88c-17-14-33-47-33-69v-125a21 21 0 0 1 21-21h416c12 0 21 9 21 21v125c0 22-16 55-33 69l-111 88c-47 39-47 105 0 144z" horiz-adv-x="1000" />

<glyph glyph-name="hourglass-2" unicode="&#xe890;" d="M748 255c37-29 65-87 65-134v-125a104 104 0 0 0-105-104h-416a104 104 0 0 0-104 104v125c0 47 27 105 64 134l111 89c6 4 6 8 0 13l-111 88c-37 30-64 87-64 134v125a104 104 0 0 0 104 104h416a104 104 0 0 0 105-104v-125c0-47-28-104-65-134l-111-88c-6-5-6-9 0-13l111-89z m-163 167l111 88c17 14 33 47 33 69v125a21 21 0 0 1-21 21h-416c-12 0-21-9-21-21v-125c0-22 16-55 33-69l111-88c48-39 48-105 0-144l-111-88c-17-14-33-47-33-69v-125a21 21 0 0 1 21-21h416c12 0 21 9 21 21v125c0 22-16 55-33 69l-111 88c-47 39-47 105 0 144z m-252-353c0 17 13 37 28 45l111 55c16 8 41 8 56 0l111-55c15-8 28-28 28-45v-21c0-17-14-31-32-31h-270a31 31 0 0 0-32 31v21z m42 486v3a21 21 0 0 0 21 21h208c12 0 21-9 21-21v-3c0-12-7-27-17-33l-91-67c-10-6-24-6-34 0l-91 67c-10 6-17 21-17 33z" horiz-adv-x="1000" />

<glyph glyph-name="html-1" unicode="&#xe891;" d="M42 704a104 104 0 0 0 104 104h708a104 104 0 0 0 104-104v-708a104 104 0 0 0-104-104h-708a104 104 0 0 0-104 104v708z m83 0v-708c0-12 9-21 21-21h708c12 0 21 9 21 21v708c0 12-9 21-21 21h-708c-12 0-21-9-21-21z m238-258l-96-96 96-95a42 42 0 0 0-59-59l-125 125a42 42 0 0 0 0 59l125 125a42 42 0 0 0 59-59z m274-191l96 95-96 96a42 42 0 0 0 59 59l125-125a42 42 0 0 0 0-59l-125-125a42 42 0 0 0-59 59z m-113 257a42 42 0 0 0 77-33l-125-291a42 42 0 0 0-77 33l125 291z" horiz-adv-x="1000" />

<glyph glyph-name="html-2" unicode="&#xe892;" d="M42 704a104 104 0 0 0 104 104h708a104 104 0 0 0 104-104v-708a104 104 0 0 0-104-104h-708a104 104 0 0 0-104 104v708z m83 0v-708c0-12 9-21 21-21h708c12 0 21 9 21 21v708c0 12-9 21-21 21h-708c-12 0-21-9-21-21z m96-324l95 95-95 96a42 42 0 0 0 59 59l125-125a42 42 0 0 0 0-59l-125-125a42 42 0 0 0-59 59z m237-72a42 42 0 1 0 0 84h209a42 42 0 1 0 0-84h-209z" horiz-adv-x="1000" />

<glyph glyph-name="inbox-1" unicode="&#xe893;" d="M42 691c0 65 46 117 104 117h708c58 0 104-52 104-117v-682c0-65-46-117-104-117h-708c-58 0-104 52-104 117v682z m687-508c-16 0-37-15-42-30l-3-7c-16-50-69-88-121-88h-126c-52 0-105 38-121 88l-2 7c-6 15-26 30-43 30h-146v-187c0-12 9-21 21-21h708c12 0 21 9 21 21v187h-146z m146 84v437c0 12-9 21-21 21h-708a21 21 0 0 1-21-21v-437h146c52 0 105-38 122-88l2-7c5-15 26-30 42-30h126c16 0 37 15 42 30l2 7c17 50 70 88 122 88h146z m-604 271a42 42 0 1 0 0 83h458a42 42 0 1 0 0-83h-458z m0-167a42 42 0 1 0 0 83h458a42 42 0 1 0 0-83h-458z" horiz-adv-x="1000" />

<glyph glyph-name="inbox-2" unicode="&#xe894;" d="M154 715c12 53 63 93 117 93h458c54 0 105-40 117-93l111-481a42 42 0 0 0 1-9v-229a104 104 0 0 0-104-104h-708a104 104 0 0 0-104 104v229a42 42 0 0 0 1 9l111 481z m710-448l-99 429c-3 15-21 29-36 29h-458c-15 0-33-14-36-29l-99-429h135c52 0 105-38 122-88l2-7c5-15 26-30 42-30h126c16 0 37 15 42 30l2 7c17 50 70 88 122 88h135z m-135-84c-16 0-37-15-42-30l-3-7c-16-50-69-88-121-88h-126c-52 0-105 38-121 88l-2 7c-6 15-26 30-43 30h-146v-187c0-12 9-21 21-21h708c12 0 21 9 21 21v187h-146z m-416 355a42 42 0 1 0 0 83h375a42 42 0 1 0 0-83h-375z m-42-167a42 42 0 1 0 0 83h458a42 42 0 1 0 0-83h-458z" horiz-adv-x="1000" />

<glyph glyph-name="info-1" unicode="&#xe895;" d="M500-108c-253 0-458 205-458 458s205 458 458 458 458-205 458-458-205-458-458-458z m0 83c207 0 375 168 375 375s-168 375-375 375-375-168-375-375 168-375 375-375z m0 542a42 42 0 1 0 0 83 42 42 0 0 0 0-83z m-42-104a42 42 0 1 0 84 0v-271a42 42 0 1 0-84 0v271z" horiz-adv-x="1000" />

<glyph glyph-name="info-2" unicode="&#xe896;" d="M500-108c-253 0-458 205-458 458s205 458 458 458 458-205 458-458-205-458-458-458z m0 83c207 0 375 168 375 375s-168 375-375 375-375-168-375-375 168-375 375-375z m0 83a42 42 0 1 0 0 84 42 42 0 0 0 0-84z m42 186a42 42 0 1 0-84 4 165 165 0 0 0 16 62c12 26 32 47 59 59 43 20 71 58 71 85a104 104 0 0 1-208 0 42 42 0 1 0-83 0 188 188 0 0 0 375 0c0-62-50-128-121-161-7-3-13-9-17-19a89 89 0 0 1-7-21 75 75 0 0 1-1-9z" horiz-adv-x="1000" />

<glyph glyph-name="ingerprint" unicode="&#xe897;" d="M771 58a42 42 0 1 0-83 0v146a188 188 0 1 1-375 0v-125a42 42 0 1 0-84 0v125c0 150 121 271 271 271s271-121 271-271v-146z m161 548a42 42 0 0 0-64-53 478 478 0 0 1-368 172 478 478 0 0 1-356-158 42 42 0 1 0-62 56 561 561 0 0 0 418 185 561 561 0 0 0 432-202z m-15-381a42 42 0 1 0-84 0 333 333 0 0 1-212 311 42 42 0 0 0 31 77 417 417 0 0 0 265-388z m-417 417a42 42 0 0 0 0-84c-184 0-333-149-333-333a42 42 0 1 0-84 0c0 230 187 417 417 417z m104-623a42 42 0 1 0-83 0v185a21 21 0 0 1-21 21c-11 0-21-9-21-19l0-7a2127 2127 0 0 0 2-67c0-22-1-40-2-54-4-46-17-87-36-121-14-27-29-45-40-55a42 42 0 1 0-56 62c5 4 14 15 23 33 14 24 23 54 26 88a595 595 0 0 1 1 47 1777 1777 0 0 1-1 64l0 8a104 104 0 1 0 208 0v-185z" horiz-adv-x="1000" />

<glyph glyph-name="keyboard" unicode="&#xe898;" d="M42 579a104 104 0 0 0 104 104h708c58 0 104-46 104-104v-458a104 104 0 0 0-104-104h-708c-58 0-104 46-104 104v458z m83 0v-458c0-12 9-21 21-21h708a21 21 0 0 1 21 21v458c0 12-9 21-21 21h-708a21 21 0 0 1-21-21z m250-396a42 42 0 1 0 0 84h250a42 42 0 1 0 0-84h-250z m-125 0a42 42 0 1 0 0 84 42 42 0 0 0 0-84z m188 125a42 42 0 1 0 0 84 42 42 0 0 0 0-84z m125 0a42 42 0 1 0 0 84 42 42 0 0 0 0-84z m125 0a42 42 0 1 0 0 84 42 42 0 0 0 0-84z m62-125a42 42 0 1 0 0 84 42 42 0 0 0 0-84z m-437 125a42 42 0 1 0 0 84 42 42 0 0 0 0-84z m62 125a42 42 0 1 0 0 84 42 42 0 0 0 0-84z m125 0a42 42 0 1 0 0 84 42 42 0 0 0 0-84z m125 0a42 42 0 1 0 0 84 42 42 0 0 0 0-84z m-375 0a42 42 0 1 0 0 84 42 42 0 0 0 0-84z m500 0a42 42 0 1 0 0 84 42 42 0 0 0 0-84z" horiz-adv-x="1000" />

<glyph glyph-name="lan-1" unicode="&#xe899;" d="M542 441l248-93c48-18 85-71 85-123v-90a125 125 0 1 0-83 0v90c0 17-16 39-32 45l-218 82v-217a125 125 0 1 0-84 0v217l-218-82c-16-6-32-28-32-45v-90a125 125 0 1 0-83 0v90c0 52 37 105 86 123l247 93v124a125 125 0 1 0 84 0v-124z m-42 201a42 42 0 1 1 0 83 42 42 0 0 1 0-83z m0-667a42 42 0 1 1 0 83 42 42 0 0 1 0-83z m333 0a42 42 0 1 1 0 83 42 42 0 0 1 0-83z m-666 0a42 42 0 1 1 0 83 42 42 0 0 1 0-83z" horiz-adv-x="1000" />

<glyph glyph-name="laptop" unicode="&#xe89a;" d="M854 142h63a42 42 0 1 0 0-84h-834a42 42 0 1 0 0 84h63a104 104 0 0 0-21 62v334a104 104 0 0 0 104 104h542c57 0 104-47 104-104v-334c0-23-8-45-21-62z m-646 396v-334a21 21 0 0 1 21-21h542a21 21 0 0 1 21 21v334a21 21 0 0 1-21 20h-542a21 21 0 0 1-21-20z m113-197a42 42 0 0 0-59 59l104 105a42 42 0 0 0 59-59l-104-105z" horiz-adv-x="1000" />

<glyph glyph-name="like" unicode="&#xe89b;" d="M514 694c45 45 103 73 174 73 151 0 270-124 270-299 0-104-51-191-146-285-21-20-83-77-86-80-9-8-18-17-29-26a1518 1518 0 0 0-40-34c-29-24-60-49-91-72a2547 2547 0 0 0-42-30 42 42 0 0 0-48 0 2547 2547 0 0 0-42 30 2387 2387 0 0 0-91 72 1518 1518 0 0 0-40 34c-11 9-20 18-29 26-3 3-65 60-86 80-95 94-146 181-146 285 0 175 119 299 271 299 70 0 128-28 173-73 5-5 10-10 14-15 4 5 9 10 14 15z m2-656a2305 2305 0 0 1 88 69 1435 1435 0 0 1 38 32c10 9 19 17 27 24 3 4 65 61 84 79 81 80 122 149 122 226 0 129-83 215-187 215-47 0-85-17-115-48a198 198 0 0 1-27-34 127 127 0 0 1-8-14c-15-32-61-32-76 0a127 127 0 0 1-8 14 198 198 0 0 1-27 34c-30 31-68 48-114 48-105 0-188-86-188-215 0-77 41-146 122-226 19-18 81-75 85-79 8-7 16-15 26-24 12-10 24-21 38-32a2305 2305 0 0 1 104-81c5 4 10 8 16 12z" horiz-adv-x="1000" />

<glyph glyph-name="link-1" unicode="&#xe89c;" d="M554 345l-49-49c54-73 48-177-18-244l-106-105c-73-74-192-74-266 0l-18 18c-74 73-74 193 0 266l105 106c67 66 171 72 244 18l49 49c-54 73-48 177 18 244l106 105c73 74 193 74 266 0l18-18c74-73 74-193 0-266l-105-106c-67-66-171-72-244-18z m60 60a105 105 0 0 1 125 17l105 106c41 41 41 107 0 148l-18 18a105 105 0 0 1-148 0l-106-105a105 105 0 0 1-17-125l61 61a42 42 0 0 0 59-59l-61-61z m-228-110a105 105 0 0 1-125-17l-105-106c-41-41-41-107 0-148l18-18a105 105 0 0 1 148 0l106 105a105 105 0 0 1 17 125l-61-61a42 42 0 0 0-59 59l61 61z" horiz-adv-x="1000" />

<glyph glyph-name="locked" unicode="&#xe89d;" d="M229 329v-333a21 21 0 0 1 21-21h500c12 0 21 9 21 21v333a21 21 0 0 1-21 21h-500c-11 0-21-9-21-21z m21 104v125c0 138 112 250 250 250 138 0 250-111 250-250v-125a104 104 0 0 0 104-104v-333a104 104 0 0 0-104-104h-500a104 104 0 0 0-104 104v333a104 104 0 0 0 104 104z m83 0h334v125c0 92-75 167-167 167a167 167 0 0 1-167-167v-125z" horiz-adv-x="1000" />

<glyph glyph-name="logout" unicode="&#xe89e;" d="M816 308h-462a42 42 0 0 0-41 42c0 23 18 42 41 42h462l-158 158a42 42 0 0 0 59 59l229-229a42 42 0 0 0 0-59l-229-230a42 42 0 0 0-59 59l158 158z m-274 500a42 42 0 1 0 0-83h-396c-12 0-21-9-21-21v-708c0-12 9-21 21-21h396a42 42 0 1 0 0-83h-396a104 104 0 0 0-104 104v708a104 104 0 0 0 104 104h396z" horiz-adv-x="1000" />

<glyph glyph-name="mail-at" unicode="&#xe89f;" d="M667 193a229 229 0 0 0-167-72c-127 0-229 102-229 229s102 229 229 229c56 0 107-20 147-53a42 42 0 0 0 82-9v-250c0-34 32-63 73-63s73 29 73 63v83c0 207-168 375-375 375s-375-168-375-375 168-375 375-375a42 42 0 1 0 0-83c-253 0-458 205-458 458s205 458 458 458 458-205 458-458v-83c0-82-70-146-156-146-57 0-108 29-135 72z m-167 11a146 146 0 1 1 0 292 146 146 0 0 1 0-292z" horiz-adv-x="1000" />

<glyph glyph-name="male" unicode="&#xe8a0;" d="M615 524l201 201-108 0c-23 0-41 19-41 42 0 23 18 41 41 41l209 0c23 0 41-18 41-41l0-209c0-23-18-41-41-41-23 0-42 18-42 41l0 108-201-201c48-60 76-136 76-219 0-196-159-354-354-354-196 0-354 158-354 354 0 195 158 354 354 354 83 0 159-28 219-76l0 0z m-219-549c149 0 271 121 271 271 0 149-122 271-271 271-150 0-271-122-271-271 0-150 121-271 271-271z" horiz-adv-x="1000" />

<glyph glyph-name="map--1" unicode="&#xe8a1;" d="M396 308v-260l208-59v319l-75-72a42 42 0 0 0-58 0l-75 72z m349 196a253 253 0 0 0-57-116v-398l187 58v496l-130-40z m-493 21l-127-39v-496l188 58v340a254 254 0 0 0-61 137z m5 89a253 253 0 0 0 66 120 248 248 0 0 0 354 0 253 253 0 0 0 70-142l157 48a42 42 0 0 0 54-40v-583a42 42 0 0 0-29-40l-271-84a42 42 0 0 0-24 0l-279 80-259-80a42 42 0 0 0-54 40v584a42 42 0 0 0 29 40l186 57z m361 62a164 164 0 0 1-236 0c-65-67-65-175-1-240l119-112 118 111c65 67 65 174 0 241z m-118-180a63 63 0 1 0 0 125 63 63 0 0 0 0-125z" horiz-adv-x="1000" />

<glyph glyph-name="medal-1" unicode="&#xe8a2;" d="M542 725v-211a311 311 0 0 0 138-54l61 76c16 19 30 60 30 85v83c0 12-9 21-21 21h-208z m-84 0h-208c-11 0-21-9-21-21v-83c0-25 15-66 30-85l61-76a311 311 0 0 0 138 54v211z m283-322a311 311 0 0 0 72-199c0-172-140-312-313-312-173 0-312 140-312 312 0 76 26 145 71 199l-65 81c-27 34-48 93-48 137v83c0 58 47 104 104 104h500c58 0 104-46 104-104v-83c0-44-21-103-48-137l-65-81z m-241-428c127 0 229 103 229 229s-102 229-229 229-229-102-229-229 102-229 229-229z m0 159l-61-31c-14-7-22-1-20 14l12 65-50 46c-10 10-7 20 8 22l68 10 31 59c7 14 18 13 24 0l31-59 68-10c15-2 19-12 8-22l-50-46 12-65c3-15-6-21-20-14l-61 31z" horiz-adv-x="1000" />

<glyph glyph-name="megaphone" unicode="&#xe8a3;" d="M542 308h41a42 42 0 0 0 22-6l270-168v558l-270-169a42 42 0 0 0-22-6h-41v-209z m-84 0v209h-229a104 104 0 0 1-104-104c0-58 47-105 104-105h229z m84-83v-229a104 104 0 0 0-104-104h-42c-81 0-146 65-146 145v188h-21c-103 0-187 84-187 188 0 103 84 187 187 187h342l324 202c27 17 63-3 63-35v-709c0-32-36-52-63-35l-324 202h-29z m-209 0v-188a63 63 0 0 1 63-62h42c11 0 20 9 20 21v229h-125z" horiz-adv-x="1000" />

<glyph glyph-name="microphone-1" unicode="&#xe8a4;" d="M640 226l-266-266c-35-43-88-68-145-68-103 0-187 84-187 187 0 57 25 110 68 145l266 266c-1 9-1 18-1 27 0 161 131 291 292 291 161 0 291-130 291-291 0-161-130-292-291-292-9 0-18 0-27 1l0 0z m-93 25c-65 29-117 81-146 146l-234-234-3-3c-24-19-39-49-39-81 0-57 47-104 104-104 32 0 62 14 81 39l3 3 234 234 0 0z m-205-118c-16-16-43-16-59 0-16 16-16 43 0 59l42 42c16 16 42 16 59 0 16-17 16-43 0-59l-42-42z m325 175c115 0 208 94 208 209 0 115-93 208-208 208-115 0-209-93-209-208 0-115 94-209 209-209z" horiz-adv-x="1000" />

<glyph glyph-name="microphone-2" unicode="&#xe8a5;" d="M396 621l0-208c0-58 47-105 104-105 57 0 104 47 104 105l0 208c0 57-46 104-104 104-57 0-104-47-104-104z m146-560l0-128c0-23-19-41-42-41-23 0-42 18-42 41l0 128c-176 20-312 170-312 352 0 23 19 41 42 41 23 0 41-18 41-41 0-150 121-271 271-271 150 0 271 121 271 271 0 23 19 41 42 41 23 0 41-18 41-41 0-182-136-332-312-352l0 0z m-229 560c0 103 84 187 187 187 104 0 188-84 188-187l0-208c0-104-85-188-188-188-104 0-187 84-187 188l0 208z" horiz-adv-x="1000" />

<glyph glyph-name="minus-1" unicode="&#xe8a6;" d="M83 308l834 0c23 0 41 19 41 42 0 23-18 42-41 42l-834 0c-23 0-41-19-41-42 0-23 18-42 41-42z" horiz-adv-x="1000" />

<glyph glyph-name="minus-2" unicode="&#xe8a7;" d="M146 475l708 0c58 0 104-47 104-104l0-42c0-57-46-104-104-104l-708 0c-58 0-104 47-104 104l0 42c0 57 46 104 104 104z m0-83c-12 0-21-10-21-21l0-42c0-11 9-21 21-21l708 0c12 0 21 10 21 21l0 42c0 11-9 21-21 21l-708 0z" horiz-adv-x="1000" />

<glyph glyph-name="minus-3" unicode="&#xe8a8;" d="M500-108c-253 0-458 205-458 458s205 458 458 458 458-205 458-458-205-458-458-458z m0 83c207 0 375 168 375 375s-168 375-375 375-375-168-375-375 168-375 375-375z m-187 333a42 42 0 1 0 0 84h375a42 42 0 1 0 0-84h-375z" horiz-adv-x="1000" />

<glyph glyph-name="money-dollar" unicode="&#xe8a9;" d="M875 283v134a209 209 0 0 0-162 162h-425a209 209 0 0 0-163-162v-134a209 209 0 0 0 163-162h425a209 209 0 0 0 162 162z m0-86a125 125 0 0 1-76-76h55c12 0 21 9 21 21v55z m-750 0v-55c0-12 9-21 21-21h55a125 125 0 0 1-76 76z m674 382a125 125 0 0 1 76-76v55c0 12-9 21-21 21h-55z m-598 0h-55c-12 0-21-9-21-21v-55a125 125 0 0 1 76 76z m-159-21a104 104 0 0 0 104 105h708a104 104 0 0 0 104-105v-416a104 104 0 0 0-104-104h-708a104 104 0 0 0-104 104v416z m458-375a167 167 0 1 0 0 334 167 167 0 0 0 0-334z m0 84a83 83 0 1 1 0 166 83 83 0 0 1 0-166z" horiz-adv-x="1000" />

<glyph glyph-name="mouse" unicode="&#xe8aa;" d="M167 475c0 184 149 333 333 333 184 0 333-149 333-333v-250c0-184-149-333-333-333-184 0-333 149-333 333v250z m83 0v-250c0-138 112-250 250-250 138 0 250 112 250 250v250c0 138-112 250-250 250-138 0-250-112-250-250z m208 83a42 42 0 1 0 84 0v-145a42 42 0 1 0-84 0v145z" horiz-adv-x="1000" />

<glyph glyph-name="music-albums" unicode="&#xe8ab;" d="M500-108c-253 0-458 205-458 458 0 253 205 458 458 458 253 0 458-205 458-458 0-253-205-458-458-458z m0 83c207 0 375 168 375 375 0 207-168 375-375 375-207 0-375-168-375-375 0-207 168-375 375-375z m219 306c7 22 30 34 52 27 22-7 34-30 27-52-30-97-107-173-204-204-22-7-45 5-52 27-7 22 5 46 27 52 71 23 127 79 150 150z m-438 138c-6-22-30-34-52-27-22 7-34 30-27 52 31 97 107 174 204 204 22 7 45-5 52-27 7-22-5-45-27-52-71-23-127-79-150-150z m219-194c-69 0-125 56-125 125 0 69 56 125 125 125 69 0 125-56 125-125 0-69-56-125-125-125z m0 83c23 0 42 19 42 42 0 23-19 42-42 42-23 0-42-19-42-42 0-23 19-42 42-42z" horiz-adv-x="1000" />

<glyph glyph-name="music-note-1" unicode="&#xe8ac;" d="M313 169v431a42 42 0 0 0 28 40l500 166a42 42 0 0 0 55-39v-563a146 146 0 1 0-83 132v373l-417-139v-532a146 146 0 1 0-83 131z m-63-194a63 63 0 1 1 0 125 63 63 0 0 1 0-125z m500 167a63 63 0 1 1 0 125 63 63 0 0 1 0-125z" horiz-adv-x="1000" />

<glyph glyph-name="music-note-2" unicode="&#xe8ad;" d="M396 403v-365a146 146 0 1 0-83 131v263 168a42 42 0 0 0 28 40l500 166a42 42 0 0 0 55-39v-563a146 146 0 1 0-83 132v206l-417-139z m0 88l417 139v79l-417-139v-79z m-146-516a63 63 0 1 1 0 125 63 63 0 0 1 0-125z m500 167a63 63 0 1 1 0 125 63 63 0 0 1 0-125z" horiz-adv-x="1000" />

<glyph glyph-name="music-note-3" unicode="&#xe8ae;" d="M396 403l0-365c0-81-65-146-146-146-80 0-146 65-146 146 0 80 66 145 146 145 22 0 44-5 63-14l0 263c0 1 0 2 0 2l0 166c0 18 11 34 28 40l500 166c27 9 55-11 55-39l0-166c0-3 0-6-1-9-1-6-3-11-7-16-3-5-8-9-13-12-3-2-6-3-9-4l-470-157 0 0z m0 88l417 139 0 79-417-139 0-79 0 0z m-146-516c35 0 63 28 63 63 0 34-28 62-63 62-34 0-62-28-62-62 0-35 28-63 62-63z" horiz-adv-x="1000" />

<glyph glyph-name="new-window-1" unicode="&#xe8af;" d="M250 600l0 0 0 104c0 58 47 104 104 104l500 0c58 0 104-46 104-104l0-500c0-57-46-104-104-104l-104 0 0-104c0-58-47-104-104-104l-500 0c-58 0-104 46-104 104l0 500c0 57 46 104 104 104l104 0z m0-83l-104 0c-12 0-21-10-21-21l0-500c0-12 9-21 21-21l500 0c11 0 21 9 21 21l0 104-313 0c-57 0-104 47-104 104l0 313z m83 187l0-500c0-11 10-21 21-21l500 0c12 0 21 10 21 21l0 500c0 12-9 21-21 21l-500 0c-11 0-21-9-21-21z" horiz-adv-x="1000" />

<glyph glyph-name="new-window-2" unicode="&#xe8b0;" d="M498-25l0 0c-10-48-52-83-102-83l-250 0c-58 0-104 46-104 104l0 250c0 50 36 92 83 102l0 356c0 58 47 104 104 104l625 0c58 0 104-46 104-104l0-625c0-57-46-104-104-104l-356 0z m2 83l354 0c12 0 21 10 21 21l0 625c0 12-9 21-21 21l-625 0c-11 0-21-9-21-21l0-354 188 0c57 0 104-47 104-104l0-188z m-375 188l0-250c0-12 9-21 21-21l250 0c11 0 21 9 21 21l0 250c0 11-10 21-21 21l-250 0c-12 0-21-10-21-21z" horiz-adv-x="1000" />

<glyph glyph-name="new-window-3" unicode="&#xe8b1;" d="M42 704a104 104 0 0 0 104 104h708a104 104 0 0 0 104-104v-708a104 104 0 0 0-104-104h-708a104 104 0 0 0-104 104v708z m83 0v-708c0-12 9-21 21-21h708c12 0 21 9 21 21v708c0 12-9 21-21 21h-708c-12 0-21-9-21-21z m417-312h146a42 42 0 1 0 0-84h-146v-166a42 42 0 1 0-84 0v166h-166a42 42 0 1 0 0 84h166v166a42 42 0 1 0 84 0v-166z" horiz-adv-x="1000" />

<glyph glyph-name="newspaper" unicode="&#xe8b2;" d="M792 600l62 0c58 0 104-47 104-104l0-479c0-69-56-125-125-125l0 0c0 0-1 0-1 0l-665 0c-69 0-125 56-125 125l0 687c0 58 46 104 104 104l542 0c57 0 104-46 104-104l0-104 0 0z m0-83l0-500c0-23 17-41 40-42l1 0c23 0 42 19 42 42l0 479c0 11-9 21-21 21l-62 0 0 0z m-84-500l0 687c0 12-9 21-20 21l-542 0c-12 0-21-9-21-21l0-687c0-23 19-42 42-42l548 0c-4 13-7 27-7 42z m-458 625l333 0c23 0 42-19 42-42l0-167c0-23-19-41-42-41l-333 0c-23 0-42 18-42 41l0 167c0 23 19 42 42 42z m42-84l0-83 250 0 0 83-250 0z m-42-333c-23 0-42 19-42 42 0 23 19 41 42 41l333 0c23 0 42-18 42-41 0-23-19-42-42-42l-333 0z m0-146c-23 0-42 19-42 42 0 23 19 42 42 42l333 0c23 0 42-19 42-42 0-23-19-42-42-42l-333 0z" horiz-adv-x="1000" />

<glyph glyph-name="note-1" unicode="&#xe8b3;" d="M792 725l62 0c58 0 104-47 104-104l0-625c0-58-46-104-104-104l-708 0c-58 0-104 46-104 104l0 625c0 57 46 104 104 104l62 0 0 42c0 23 19 41 42 41 23 0 42-18 42-41l0-42 83 0 0 42c0 23 19 41 42 41 23 0 41-18 41-41l0-42 84 0 0 42c0 23 18 41 41 41 23 0 42-18 42-41l0-42 83 0 0 42c0 23 19 41 42 41 23 0 42-18 42-41l0-42 0 0z m0-83l0-42c0-23-19-42-42-42-23 0-42 19-42 42l0 42-83 0 0-42c0-23-19-42-42-42-23 0-41 19-41 42l0 42-84 0 0-42c0-23-18-42-41-42-23 0-42 19-42 42l0 42-83 0 0-42c0-23-19-42-42-42-23 0-42 19-42 42l0 42-62 0c-12 0-21-10-21-21l0-625c0-12 9-21 21-21l708 0c12 0 21 9 21 21l0 625c0 11-9 21-21 21l-62 0 0 0z m-542-271c-23 0-42 19-42 42 0 23 19 41 42 41l438 0c23 0 41-18 41-41 0-23-18-42-41-42l-438 0z m0-146c-23 0-42 19-42 42 0 23 19 41 42 41l500 0c23 0 42-18 42-41 0-23-19-42-42-42l-500 0z m0-146c-23 0-42 19-42 42 0 23 19 42 42 42l292 0c23 0 41-19 41-42 0-23-18-42-41-42l-292 0z" horiz-adv-x="1000" />

<glyph glyph-name="notification-2" unicode="&#xe8b4;" d="M427 264l-172 68a42 42 0 0 0-14 68l375 395c31 33 84 0 69-42l-112-317 172-68a42 42 0 0 0 14-67l-375-396c-30-33-84 0-69 42l112 317z m-84 123l152-61a42 42 0 0 0 24-52l-60-170 198 209-152 61a42 42 0 0 0-23 52l59 170-198-209z" horiz-adv-x="1000" />

<glyph glyph-name="notification" unicode="&#xe8b5;" d="M604-4a104 104 0 0 0-208 0h-313c-35 0-55 42-31 69l105 120c16 18 31 57 31 82v229c0 172 139 312 312 312 173 0 313-140 313-312v-229c0-25 14-64 30-82l105-120c24-27 5-69-31-69h-313z m177 134c-30 33-52 92-52 137v229c0 126-102 229-229 229s-229-103-229-229v-229c0-45-22-104-52-137l-44-51h650l-44 51z" horiz-adv-x="1000" />

<glyph glyph-name="office-box" unicode="&#xe8b6;" d="M667 517l0-63c0-57-47-104-104-104l-126 0c-57 0-104 47-104 104l0 63-166 0 0-521c0-12 9-21 21-21l624 0c12 0 21 9 21 21l0 521-166 0 0 0z m250 0l0-521c0-58-47-104-105-104l-624 0c-58 0-105 46-105 104l0 521c-23 0-41 18-41 41l0 146c0 58 46 104 104 104l708 0c58 0 104-46 104-104l0-146c0-23-18-41-41-41l0 0z m-42 187c0 12-9 21-21 21l-708 0c-12 0-21-9-21-21l0-104 750 0 0 104z m-458-250c0-11 9-21 20-21l126 0c11 0 20 10 20 21l0 63-166 0 0-63z" horiz-adv-x="1000" />

<glyph glyph-name="palette" unicode="&#xe8b7;" d="M42 17l0 666c0 69 56 125 125 125l166 0c69 0 125-56 125-125l0-78 70 70c48 48 128 49 176 0l121-121c49-48 49-128 0-176l-70-70 78 0c69 0 125-56 125-125l0-166c0-69-56-125-125-125l-666 0c-69 0-125 56-125 125z m333 505l0 161c0 23-19 42-42 42l-166 0c-23 0-42-19-42-42l0-412c3 3 6 7 9 10l241 241 0 0z m-96-214l0 0 359 0 128 129c16 16 16 42 0 59l-120 120c-17 16-43 16-59 0l-308-308z m-154-125l0-166c0-23 19-42 42-42l666 0c23 0 42 19 42 42l0 166c0 23-19 42-42 42l-666 0c-23 0-42-19-42-42z m125-145c-34 0-62 28-62 62 0 35 28 63 62 63 35 0 63-28 63-63 0-34-28-62-63-62z" horiz-adv-x="1000" />

<glyph glyph-name="pause-1" unicode="&#xe8b8;" d="M188 579a104 104 0 0 0 104 104h41a104 104 0 0 0 105-104v-458a104 104 0 0 0-105-104h-41a104 104 0 0 0-104 104v458z m83 0v-458c0-12 9-21 21-21h41a21 21 0 0 1 21 21v458c0 12-9 21-21 21h-41a21 21 0 0 1-21-21z m292 0a104 104 0 0 0 104 104h41a104 104 0 0 0 105-104v-458a104 104 0 0 0-105-104h-41a104 104 0 0 0-104 104v458z m83 0v-458c0-12 9-21 21-21h41a21 21 0 0 1 21 21v458c0 12-9 21-21 21h-41a21 21 0 0 1-21-21z" horiz-adv-x="1000" />

<glyph glyph-name="pc-monitor" unicode="&#xe8b9;" d="M458 38v83h-312a104 104 0 0 0-104 104v417a104 104 0 0 0 104 104h708a104 104 0 0 0 104-104v-417a104 104 0 0 0-104-104h-312v-83h146a42 42 0 1 0 0-84h-375a42 42 0 1 0 0 84h145z m-333 604v-417c0-11 9-21 21-21h708c12 0 21 10 21 21v417c0 11-9 21-21 21h-708c-12 0-21-10-21-21z m134-217a42 42 0 0 0-59 59l104 104a42 42 0 0 0 59-59l-104-104z" horiz-adv-x="1000" />

<glyph glyph-name="pen-1" unicode="&#xe8ba;" d="M828 388l-101-321a42 42 0 0 0-30-28l-604-146c-30-8-57 20-50 50l146 604a42 42 0 0 0 28 30l321 101 80 96 2 3a109 109 0 0 0 155-1l151-151a109 109 0 0 0 1-155l-3-2-96-80z m-610-379l437 105 89 287-193 193-287-89-105-437 219 219a83 83 0 0 0 80 105 83 83 0 1 0-21-164l-219-219z m401 635l175-175 75 61c8 10 8 26-2 36l-151 151a26 26 0 0 1-36 2l-61-75z" horiz-adv-x="1000" />

<glyph glyph-name="phone-1" unicode="&#xe8bb;" d="M865 96l-118 99c-8 6-24 7-32 1l-66-44a42 42 0 0 0-23-7c-13 0-34 3-59 9a355 355 0 0 0-123 55 352 352 0 0 0-86 86 355 355 0 0 0-55 122c-6 26-8 46-8 59a42 42 0 0 0 7 23l44 66c5 8 4 25-2 32l-99 119c-10 12-23 12-33 0l-66-80c-18-22-26-67-18-94a42 42 0 0 0 2-4c0-4 2-12 6-24a536 536 0 0 1 30-71c39-78 98-160 182-245 84-84 167-143 244-182a536 536 0 0 1 72-30c12-4 20-6 23-6a42 42 0 0 0 6-2c25-8 70 0 92 19l80 65c13 11 13 23 0 34z m-197 170c39 25 96 22 132-7l119-99c52-44 52-119-1-162l-80-66c-44-35-116-50-169-33a318 318 0 0 0-31 8 618 618 0 0 0-83 35c-85 42-175 107-266 198-90 90-155 180-198 266a618 618 0 0 0-34 83 313 313 0 0 0-9 31c-16 53-1 125 34 168l65 80c44 53 118 54 162 1l99-119c30-35 33-92 7-131l-36-54c1-9 3-18 5-29a273 273 0 0 1 43-94 269 269 0 0 1 65-65 273 273 0 0 1 94-42c10-3 20-4 28-5l54 36z" horiz-adv-x="1000" />

<glyph glyph-name="phone-2" unicode="&#xe8bc;" d="M865 96l-118 99c-8 6-24 7-32 1l-66-44c-7-4-15-7-23-7-13 0-34 3-59 9-42 10-84 27-123 55-16 11-32 24-46 39-15 15-28 30-40 47-27 39-45 80-55 122-6 26-8 46-8 59 0 8 2 16 7 23l44 66c5 8 4 25-2 32l-99 119c-10 12-23 12-33 0l-66-80c-18-22-26-67-18-94 1-1 1-3 2-4 0-4 2-12 6-24 7-20 17-44 30-71 39-78 98-160 182-245 84-84 167-143 244-182 27-13 51-23 72-30 12-4 20-6 23-6 2-1 4-1 6-2 25-8 70 0 92 19l80 65c13 11 13 23 0 34z m-197 170c39 25 96 22 132-7l119-99c52-44 52-119-1-162l-80-66c-44-35-116-50-169-33-7 1-18 4-31 8-25 8-52 20-83 35-85 42-175 107-266 198-90 90-155 180-198 266-15 30-26 58-34 83-5 13-7 24-9 31-16 53-1 125 34 168l65 80c44 53 118 54 162 1l99-119c30-35 33-92 7-131l-36-54c1-9 3-18 5-29 8-32 22-64 42-94 9-12 19-24 30-35 12-11 24-21 36-30 30-21 62-35 94-42 10-3 20-4 28-5l54 36z m207 400l0 0-220-220c-17-17-43-17-59 0-17 16-17 42 0 59l220 220-108 0c-23 0-41 19-41 42 0 23 18 41 41 41l209 0c23 0 41-18 41-41l0-209c0-23-18-41-41-41-23 0-42 18-42 41l0 108z" horiz-adv-x="1000" />

<glyph glyph-name="phone-3" unicode="&#xe8bd;" d="M865 96l-118 99c-8 6-24 7-32 1l-66-44c-7-4-15-7-23-7-13 0-34 3-59 9-42 10-84 27-123 55-16 11-32 24-46 39-15 15-28 30-40 47-27 39-45 80-55 122-6 26-8 46-8 59 0 8 2 16 7 23l44 66c5 8 4 25-2 32l-99 119c-10 12-23 12-33 0l-66-80c-18-22-26-67-18-94 1-1 1-3 2-4 0-4 2-12 6-24 7-20 17-44 30-71 39-78 98-160 182-245 84-84 167-143 244-182 27-13 51-23 72-30 12-4 20-6 23-6 2-1 4-1 6-2 25-8 70 0 92 19l80 65c13 11 13 23 0 34z m-197 170c39 25 96 22 132-7l119-99c52-44 52-119-1-162l-80-66c-44-35-116-50-169-33-7 1-18 4-31 8-25 8-52 20-83 35-85 42-175 107-266 198-90 90-155 180-198 266-15 30-26 58-34 83-5 13-7 24-9 31-16 53-1 125 34 168l65 80c44 53 118 54 162 1l99-119c30-35 33-92 7-131l-36-54c1-9 3-18 5-29 8-32 22-64 42-94 9-12 19-24 30-35 12-11 24-21 36-30 30-21 62-35 94-42 10-3 20-4 28-5l54 36z m-1 310l220 220c17 16 43 16 59 0 16-16 16-42 0-59l-220-220 107 0c23 0 42-19 42-42 0-23-19-42-42-42l-208 0c-23 0-42 19-42 42l0 208c0 23 19 42 42 42 23 0 42-19 42-42l0-107z" horiz-adv-x="1000" />

<glyph glyph-name="phone-4" unicode="&#xe8be;" d="M865 96l-118 99c-8 6-24 7-32 1l-66-44a42 42 0 0 0-23-7c-13 0-34 3-59 9a355 355 0 0 0-123 55 352 352 0 0 0-86 86 355 355 0 0 0-55 122c-6 26-8 46-8 59a42 42 0 0 0 7 23l44 66c5 8 4 25-2 32l-99 119c-10 12-23 12-33 0l-66-80c-18-22-26-67-18-94a42 42 0 0 0 2-4c0-4 2-12 6-24a536 536 0 0 1 30-71c39-78 98-160 182-245 84-84 167-143 244-182a536 536 0 0 1 72-30c12-4 20-6 23-6a42 42 0 0 0 6-2c25-8 70 0 92 19l80 65c13 11 13 23 0 34z m-197 170c39 25 96 22 132-7l119-99c52-44 52-119-1-162l-80-66c-44-35-116-50-169-33a318 318 0 0 0-31 8 618 618 0 0 0-83 35c-85 42-175 107-266 198-90 90-155 180-198 266a618 618 0 0 0-34 83 313 313 0 0 0-9 31c-16 53-1 125 34 168l65 80c44 53 118 54 162 1l99-119c30-35 33-92 7-131l-36-54c1-9 3-18 5-29a273 273 0 0 1 43-94 269 269 0 0 1 65-65 273 273 0 0 1 94-42c10-3 20-4 28-5l54 36z m162 355l116-116a42 42 0 0 0-59-59l-116 116-116-116a42 42 0 0 0-59 59l116 116-116 116a42 42 0 0 0 59 59l116-116 116 116a42 42 0 0 0 59-59l-116-116z" horiz-adv-x="1000" />

<glyph glyph-name="phone-5" unicode="&#xe8bf;" d="M744 67l-101 84c-4 3-15 4-19 1l-56-38a42 42 0 0 0-24-7c-11 0-29 2-51 7a308 308 0 0 0-147 82 308 308 0 0 0-82 147c-5 22-7 40-7 52a42 42 0 0 0 7 23l37 56c4 5 3 15-1 20l-84 100c-6 8-12 8-19 0l-55-68c-14-17-21-52-14-73a42 42 0 0 0 1-5c0-2 2-9 5-19 6-17 14-37 25-60 33-65 83-135 154-206 71-71 141-121 206-153a449 449 0 0 1 60-26c10-3 16-5 19-5a42 42 0 0 0 6-2c19-6 55 1 72 15l68 56c8 6 8 12 0 19z m-167 154c36 24 87 21 120-6l101-84c47-40 47-108-1-148l-68-55c-38-32-102-45-149-30-21 4-55 15-98 37-74 36-151 92-228 169-78 78-133 155-169 228-22 43-33 77-38 98-14 48-1 111 30 149l56 68c39 48 108 49 147 1l84-101c28-33 30-84 7-119l-30-44a226 226 0 0 1 39-99 222 222 0 0 1 54-55 226 226 0 0 1 78-34c9-2 16-4 21-4l44 29z m381 129a42 42 0 1 0-83 0c0 207-168 375-375 375a42 42 0 1 0 0 83c253 0 458-205 458-458z m-187 0a42 42 0 1 0-83 0 188 188 0 0 1-188 188 42 42 0 1 0 0 83c150 0 271-121 271-271z" horiz-adv-x="1000" />

<glyph glyph-name="photography" unicode="&#xe8c0;" d="M322 689c8 9 20 15 32 15l292 0c13 0 25-6 32-15l71-89 105 0c58 0 104-47 104-104l0-396c0-58-46-104-104-104l-708 0c-58 0-104 46-104 104l0 396c0 57 46 104 104 104l105 0 71 89z m52-68l-71-89c-7-10-19-15-32-15l-125 0c-12 0-21-10-21-21l0-396c0-11 9-21 21-21l708 0c12 0 21 10 21 21l0 396c0 11-9 21-21 21l-125 0c-12 0-24 5-32 15l-71 89-252 0z m126-479c-104 0-187 84-187 187 0 104 83 188 187 188 104 0 188-84 188-188 0-103-84-187-188-187z m0 83c58 0 104 47 104 104 0 58-46 104-104 104-57 0-104-46-104-104 0-57 47-104 104-104z" horiz-adv-x="1000" />

<glyph glyph-name="picture-1" unicode="&#xe8c1;" d="M42 704c0 58 46 104 104 104l708 0c58 0 104-46 104-104l0-708c0-58-46-104-104-104l-708 0c-58 0-104 46-104 104l0 708z m833-420l0 420c0 12-9 21-21 21l-708 0c-12 0-21-9-21-21l0-503 96 95c14 15 37 16 54 4l135-102 225 262c16 19 44 20 61 3l179-179z m-750-288c0-12 9-21 21-21l708 0c12 0 21 9 21 21l0 170-206 206-221-257c-14-17-39-20-56-7l-138 104-129-129 0-87z m208 437c-46 0-83 38-83 84 0 46 37 83 83 83 46 0 84-37 84-83 0-46-38-84-84-84z" horiz-adv-x="1000" />

<glyph glyph-name="picture-2" unicode="&#xe8c2;" d="M750 100v-104c0-58-47-104-104-104h-500c-58 0-104 46-104 104v500c0 57 46 104 104 104h104v104c0 58 47 104 104 104h500c58 0 104-46 104-104v-500c0-57-46-104-104-104h-104z m0 83h104c12 0 21 10 21 21v500c0 12-9 21-21 21h-500c-11 0-21-9-21-21v-104h313c57 0 104-47 104-104v-313z m-83 38v275c0 11-10 21-21 21h-500c-12 0-21-10-21-21v-337l54 54a42 42 0 0 0 52 5l96-63 163 181a42 42 0 0 0 60 2l117-117z m-542-225c0-12 9-21 21-21h500c11 0 21 9 21 21v108l-145 144-158-176a42 42 0 0 0-54-7l-96 65-89-89v-45z m146 312a63 63 0 1 0 0 125 63 63 0 0 0 0-125z" horiz-adv-x="1000" />

<glyph glyph-name="pin-1" unicode="&#xe8c3;" d="M375 100l-267-200c-38-29-87 20-58 58l200 267-113 113a42 42 0 0 0 4 62 291 291 0 0 0 261 53l171 170a229 229 0 0 0 48 170 42 42 0 0 0 62 3l263-263a42 42 0 0 0-3-62 229 229 0 0 0-170-48l-170-171a291 291 0 0 0-53-262 42 42 0 0 0-62-3l-113 113z m-65 66l-18-24 24 18-6 6z m348 452a42 42 0 0 0-11-38l-204-204a42 42 0 0 0-45-10 208 208 0 0 1-165-6l277-277a208 208 0 0 1 6 165 42 42 0 0 0 10 45l204 204a42 42 0 0 0 38 11 146 146 0 0 1 81 5l-186 186a146 146 0 0 1-5-81z" horiz-adv-x="1000" />

<glyph glyph-name="pin-2" unicode="&#xe8c4;" d="M780 140l-251-237a42 42 0 0 0-58 0l-251 237a388 388 0 0 0 0 554c155 153 405 153 560 0a388 388 0 0 0 0-554z m-59 495c-122 120-320 120-442 0-122-120-122-315-1-435l222-209 222 209a305 305 0 0 1-1 435z m-221-389a167 167 0 1 0 0 333 167 167 0 0 0 0-333z m0 83a83 83 0 1 1 0 167 83 83 0 0 1 0-167z" horiz-adv-x="1000" />

<glyph glyph-name="pin-3" unicode="&#xe8c5;" d="M500 808c191 0 362-157 354-335-9-193-257-581-354-581-97 0-345 388-354 581-8 178 163 335 354 335z m2-827c10 8 23 20 37 36 30 35 66 82 99 134 77 122 129 244 133 326 6 128-125 248-271 248s-276-120-271-248c4-82 56-204 134-326 33-52 68-99 98-134 15-16 27-28 37-36l2-2 2 2z m-2 327a146 146 0 1 0 0 292 146 146 0 0 0 0-292z m0 84a63 63 0 1 1 0 125 63 63 0 0 1 0-125z" horiz-adv-x="1000" />

<glyph glyph-name="play-1" unicode="&#xe8c6;" d="M292 93l405 257-405 257v-514z m-84 540c0 60 56 90 107 58l440-279c49-31 49-93 0-124l-440-279c-51-32-107-2-107 59v565z" horiz-adv-x="1000" />

<glyph glyph-name="play-next-1" unicode="&#xe8c7;" d="M708 442v221a42 42 0 1 0 84 0v-625a42 42 0 1 0-84 0v221l-393-250c-51-32-107-2-107 59v565c0 60 56 90 107 58l393-249z m-416-349l405 257-405 257v-514z" horiz-adv-x="1000" />

<glyph glyph-name="play-prev-1" unicode="&#xe8c8;" d="M292 442l393 249c51 32 107 2 107-58v-565c0-61-55-91-107-59l-393 250v-221a42 42 0 1 0-84 0v625a42 42 0 1 0 84 0v-221z m416-349v514l-405-257 405-257z" horiz-adv-x="1000" />

<glyph glyph-name="playlist" unicode="&#xe8c9;" d="M708 505v-467c0-4 0-8-1-11a156 156 0 0 0-311 21 156 156 0 0 0 229 138v518a42 42 0 0 0 32 41l250 62a42 42 0 0 0 51-40v-167a42 42 0 0 0-32-41l-218-54z m0 86l167 42v80l-167-41v-81z m-156-616a73 73 0 1 1 0 146 73 73 0 0 1 0-146z m-469 604a42 42 0 1 0 0 84h396a42 42 0 1 0 0-84h-396z m0-166a42 42 0 1 0 0 83h396a42 42 0 1 0 0-83h-396z m0-167a42 42 0 1 0 0 83h271a42 42 0 1 0 0-83h-271z" horiz-adv-x="1000" />

<glyph glyph-name="pound-1" unicode="&#xe8ca;" d="M365 288c7-35 10-64 10-100 0-55-27-108-72-157a417 417 0 0 0-52-46c-11-8-18-14-22-16-37-22-21-77 21-77h500a42 42 0 1 1 0 83h-386c59 62 94 133 94 213 0 37-2 67-8 100h217a42 42 0 1 1 0 83h-238l-4 13-3 10c-19 66-26 102-26 154 0 138 131 221 319 152a42 42 0 1 1 29 78c-242 89-431-33-431-230 0-61 8-104 29-177h-92a42 42 0 1 1 0-83h115z" horiz-adv-x="1000" />

<glyph glyph-name="pound-2" unicode="&#xe8cb;" d="M500-108c-253 0-458 205-458 458s205 458 458 458 458-205 458-458-205-458-458-458z m0 83c207 0 375 168 375 375s-168 375-375 375-375-168-375-375 168-375 375-375z m-86 313h-39a42 42 0 1 0 0 83h12c-9 26-13 47-13 74 0 123 116 214 265 159a42 42 0 0 0-28-78c-93 34-153-14-153-81 0-22 4-38 15-69l2-5h108a42 42 0 1 0 0-83h-85c1-10 2-19 2-30 0-34-11-66-30-95h155a42 42 0 1 0 0-84h-250c-41 0-57 53-24 76 2 1 5 4 10 8 8 7 16 15 24 24 20 23 31 48 31 71 0 11 0 20-2 30z" horiz-adv-x="1000" />

<glyph glyph-name="power" unicode="&#xe8cc;" d="M309 679a42 42 0 1 0 38-74 333 333 0 0 1-180-297c0-184 149-333 333-333s333 149 333 333a333 333 0 0 1-180 297 42 42 0 1 0 38 74 417 417 0 0 0 226-371c0-230-187-416-417-416s-417 186-417 416c0 158 89 300 226 371z m149 88a42 42 0 1 0 84 0v-417a42 42 0 1 0-84 0v417z" horiz-adv-x="1000" />

<glyph glyph-name="present" unicode="&#xe8cd;" d="M264 600l0 0c-9 19-14 40-14 63 0 80 65 145 146 145 49 0 93-24 119-62 20 13 43 21 68 21 69 0 125-56 125-125 0-15-2-29-7-42l153 0c58 0 104-47 104-104l0-83c0-51-35-93-83-103l0-314c0-58-46-104-104-104l-542 0c-57 0-104 46-104 104l0 314c-47 10-83 52-83 103l0 83c0 57 46 104 104 104l118 0z m-139-104l0-84c0-11 9-20 21-20l312 0 0 125-312 0c-12 0-21-10-21-21z m417 21l0-125 312 0c12 0 21 9 21 20l0 84c0 11-9 21-21 21l-312 0z m-334-209l0-314c0-11 10-21 21-21l229 0 0 335-250 0z m334 0l0-335 229 0c11 0 21 10 21 21l0 314-250 0z m0 292l41 0c23 0 42 19 42 42 0 23-19 41-42 41-23 0-41-18-41-41l0-42z m-84 0l0 63c0 34-28 62-62 62-35 0-63-28-63-62 0-35 28-63 63-63l62 0z" horiz-adv-x="1000" />

<glyph glyph-name="print" unicode="&#xe8ce;" d="M792 642h62a104 104 0 0 0 104-104v-292a104 104 0 0 0-104-104h-62v-146c0-58-47-104-104-104h-376a104 104 0 0 0-104 104v146h-62a104 104 0 0 0-104 104v292a104 104 0 0 0 104 104h62v62c0 58 47 104 104 104h376c57 0 104-46 104-104v-62z m-500 62v-62h416v62a21 21 0 0 1-20 21h-376c-11 0-20-9-20-21z m0-458v-250a21 21 0 0 1 20-21h376c11 0 20 9 20 21v250a21 21 0 0 1-20 21h-376c-11 0-20-10-20-21z m500-21h62a21 21 0 0 1 21 21v292c0 11-9 20-21 20h-708a21 21 0 0 1-21-20v-292c0-12 9-21 21-21h62v21c0 57 47 104 104 104h376c57 0 104-47 104-104v-21z" horiz-adv-x="1000" />

<glyph glyph-name="propeller" unicode="&#xe8cf;" d="M458 586l0 181a42 42 0 0 0 42 41c138 0 250-112 250-250v-104a145 145 0 0 0-14-62l181 0a42 42 0 0 0 41-42c0-138-112-250-250-250h-104a145 145 0 0 0-62 14l0-181a42 42 0 0 0-42-41c-138 0-250 112-250 250v104c0 22 5 43 14 62l-181 0a42 42 0 0 0-41 42c0 138 112 250 250 250h104c22 0 43-5 62-14z m-63-278a63 63 0 0 1-62-62v-104c0-78 54-143 125-162l0 264 0 2v62h-63z m147 148l0-2v-62h62c35 0 63 28 63 62v104c0 78-53 143-125 162l0-264z m0-148v-62c0-35 28-63 62-63h104c78 0 143 53 162 125l-328 0z m-84 84v62c0 35-28 63-62 63h-104a167 167 0 0 1-162-125l328 0z" horiz-adv-x="1000" />

<glyph glyph-name="radar" unicode="&#xe8d0;" d="M458 422v111a188 188 0 1 1 230-183c0 38-12 75-33 105a42 42 0 1 0 69 47 270 270 0 0 0 47-152c0-150-121-271-271-271s-271 121-271 271c0 135 100 248 229 268v105c-187-21-333-180-333-373 0-207 168-375 375-375s375 168 375 375c0 85-28 166-80 232a42 42 0 1 0 65 51 457 457 0 0 0 98-283c0-253-205-458-458-458s-458 205-458 458 205 458 458 458c12 0 22-4 30-12 7-7 12-18 12-29v-345a83 83 0 1 0-84 0z" horiz-adv-x="1000" />

<glyph glyph-name="refresh-1" unicode="&#xe8d1;" d="M833 665a458 458 0 0 1-333 143c-253 0-458-205-458-458s205-458 458-458 458 205 458 458a42 42 0 1 1-83 0c0-207-168-375-375-375s-375 168-375 375 168 375 375 375a374 374 0 0 0 280-125h-113a42 42 0 1 1 0-83h208a42 42 0 0 1 42 41v209a42 42 0 1 1-84 0v-102z" horiz-adv-x="1000" />

<glyph glyph-name="refresh-2" unicode="&#xe8d2;" d="M167 35v-102a42 42 0 1 0-84 0v209a42 42 0 0 0 42 41h208a42 42 0 1 0 0-83h-112c70-78 170-125 279-125 207 0 375 168 375 375a42 42 0 1 0 83 0c0-253-205-458-458-458a458 458 0 0 0-333 143z m666 630v102a42 42 0 1 0 84 0v-209a42 42 0 0 0-42-41h-208a42 42 0 1 0 0 83h113c-71 78-171 125-280 125-207 0-375-168-375-375a42 42 0 1 0-83 0c0 253 205 458 458 458 129 0 248-53 333-143z" horiz-adv-x="1000" />

<glyph glyph-name="refresh-3" unicode="&#xe8d3;" d="M750 159v441h-292a42 42 0 1 0 0 83h334a42 42 0 0 0 41-41v-483l54 54a42 42 0 0 0 59-59l-125-125a42 42 0 0 0-59 0l-125 125a42 42 0 0 0 59 59l54-54z m-500 382v-441h292a42 42 0 1 0 0-83h-334a42 42 0 0 0-41 41v483l-54-54a42 42 0 0 0-59 59l125 125a42 42 0 0 0 59 0l125-125a42 42 0 0 0-59-59l-54 54z" horiz-adv-x="1000" />

<glyph glyph-name="repeat-1" unicode="&#xe8d4;" d="M226 121h524c46 0 83 37 83 83v167a42 42 0 1 0 84 0v-167a167 167 0 0 0-167-166h-524l74-75a42 42 0 0 0-59-59l-145 146a42 42 0 0 0 0 59l145 146a42 42 0 0 0 59-59l-74-75z m548 458h-524c-46 0-83-37-83-83v-167a42 42 0 1 0-84 0v167a167 167 0 0 0 167 167h524l-74 74a42 42 0 0 0 59 59l146-146a42 42 0 0 0 0-59l-146-145a42 42 0 0 0-59 59l74 74z" horiz-adv-x="1000" />

<glyph glyph-name="repeat-2" unicode="&#xe8d5;" d="M413 17l54-54a42 42 0 0 0-59-59l-125 125a42 42 0 0 0 0 59l125 125a42 42 0 0 0 59-59l-54-54h212c138 0 250 112 250 250 0 64-18 119-53 161a42 42 0 1 0 64 53c48-57 72-132 72-214 0-184-149-333-333-333h-212z m174 666l-54 54a42 42 0 0 0 59 59l125-125a42 42 0 0 0 0-59l-125-125a42 42 0 0 0-59 59l54 54h-212c-138 0-250-112-250-250 0-63 18-119 53-161a42 42 0 0 0-64-53c-48 57-72 132-72 214 0 184 149 333 333 333h212z" horiz-adv-x="1000" />

<glyph glyph-name="rewind-back-1" unicode="&#xe8d6;" d="M852 691c51 32 106 2 106-58v-565c0-61-55-91-106-59l-227 144v-85c0-61-55-91-106-59l-440 279c-50 31-50 93 0 124l440 279c51 32 106 2 106-58v-86l227 144z m-246-255c-28-17-64 3-64 35v136l-406-257 406-257v136c0 33 36 53 64 35l269-171v514l-269-171z" horiz-adv-x="1000" />

<glyph glyph-name="rewind-forward-1" unicode="&#xe8d7;" d="M458 471c0-32-36-52-64-35l-269 171v-514l269 171c28 18 64-2 64-35v-136l406 257-406 257v-136z m-83 162c0 60 55 90 106 58l441-279c49-31 49-93 0-124l-441-279c-51-32-106-2-106 59v85l-227-144c-51-32-106-2-106 59v565c0 60 55 90 106 58l227-144v86z" horiz-adv-x="1000" />

<glyph glyph-name="rocket" unicode="&#xe8d8;" d="M413 554l104 138c49 65 151 116 233 116h167a42 42 0 0 0 41-41v-167c0-82-51-184-116-233l-138-104-38-334c-3-35-46-50-70-25l-160 159a42 42 0 0 0-49 8l-166 166a42 42 0 0 0-8 49l-159 160c-25 24-10 67 25 70l334 38z m91-441l89-89 19 171-108-82z m-241 241l82 108-171-19 89-89z m529 79c44 34 83 111 83 167v125h-125c-56 0-133-39-167-83l-278-371 116-116 371 278z m-750-416a125 125 0 1 0 125-125h-84a42 42 0 0 0-41 41v84z m83-42h42a42 42 0 1 1-42 42v-42z" horiz-adv-x="1000" />

<glyph glyph-name="rss" unicode="&#xe8d9;" d="M958-67a42 42 0 1 0-83 0c0 438-354 792-792 792a42 42 0 1 0 0 83c484 0 875-391 875-875z m-250 0a42 42 0 1 0-83 0c0 300-242 542-542 542a42 42 0 1 0 0 83c346 0 625-279 625-625z m-250 0a42 42 0 1 0-83 0c0 161-131 292-292 292a42 42 0 1 0 0 83c207 0 375-168 375-375z m-354-41a63 63 0 1 0 0 125 63 63 0 0 0 0-125z" horiz-adv-x="1000" />

<glyph glyph-name="ruble-1" unicode="&#xe8da;" d="M354 163h209a42 42 0 1 0 0-84h-209v-146a42 42 0 1 0-83 0v146h-42a42 42 0 1 0 0 84h42v83h-42a42 42 0 1 0 0 83h42v375a104 104 0 0 0 104 104h167c149 0 271-121 271-270v-21c0-150-122-271-271-271h-188v-83z m188 166c103 0 187 84 187 188v21c0 103-84 187-187 187h-167c-11 0-21-9-21-21v-375h188z" horiz-adv-x="1000" />

<glyph glyph-name="ruble-2" unicode="&#xe8db;" d="M500-108c-253 0-458 205-458 458s205 458 458 458 458-205 458-458-205-458-458-458z m0 83c207 0 375 168 375 375s-168 375-375 375-375-168-375-375 168-375 375-375z m-146 417v146a104 104 0 0 0 104 104h104c92 0 167-75 167-167 0-92-74-167-167-167h-124v-41h83a42 42 0 1 0 0-84h-83v-83a42 42 0 1 0-84 0v83h-41a42 42 0 1 0 0 84h41v41h-41a42 42 0 1 0 0 84h41z m208 0a83 83 0 0 1 84 83c0 46-38 83-84 83h-104a21 21 0 0 1-20-20v-146h124z" horiz-adv-x="1000" />

<glyph glyph-name="rupee-1" unicode="&#xe8dc;" d="M642 600c-8 48-29 91-60 125l189 0c23 0 42 19 42 42 0 23-19 41-42 41l-542 0c-23 0-41-18-41-41 0-23 18-42 41-42l167 0c78 0 143-53 161-125l-328 0c-23 0-41-19-41-42 0-23 18-41 41-41l328 0c-18-72-83-125-161-125l-125 0c-35 0-54-41-33-68l334-417c14-18 40-21 58-6 18 14 21 40 7 58l-279 349 38 0c124 0 227 90 246 209l129 0c23 0 42 18 42 41 0 23-19 42-42 42l-129 0 0 0z" horiz-adv-x="1000" />

<glyph glyph-name="rupee-2" unicode="&#xe8dd;" d="M500-108c-253 0-458 205-458 458 0 253 205 458 458 458 253 0 458-205 458-458 0-253-205-458-458-458z m0 83c207 0 375 168 375 375 0 207-168 375-375 375-207 0-375-168-375-375 0-207 168-375 375-375z m99 521l0 0 47 0c23 0 42-19 42-42 0-23-19-41-42-41l-47 0c-16-63-68-112-133-123l128-141c15-17 14-44-4-59-17-15-43-14-58 3l-188 208c-24 27-5 70 31 70l62 0c31 0 58 17 73 42l-156 0c-23 0-41 18-41 41 0 23 18 42 41 42l156 0c-15 25-42 42-73 42l-83 0c-23 0-41 18-41 41 0 23 18 42 41 42l292 0c23 0 42-19 42-42 0-23-19-41-42-41l-64 0c7-13 13-27 17-42z" horiz-adv-x="1000" />

<glyph glyph-name="sale-1" unicode="&#xe8de;" d="M292 215a333 333 0 0 0-125 260c0 184 149 333 333 333s333-149 333-333a333 333 0 0 0-125-260v-267c0-46-45-71-84-47l-123 73c1-1-125-73-125-73-39-24-84 1-84 47v267z m83-49v-169l82 49c25 15 61 14 86 0l82-49v169a332 332 0 0 0-125-24c-44 0-86 8-125 24z m125 59c138 0 250 112 250 250s-112 250-250 250-250-112-250-250 112-250 250-250z m0 125a125 125 0 1 0 0 250 125 125 0 0 0 0-250z m0 83a42 42 0 1 1 0 84 42 42 0 0 1 0-84z" horiz-adv-x="1000" />

<glyph glyph-name="sale-2" unicode="&#xe8df;" d="M887 796c17 16 43 16 59 0 16-16 16-42 0-59l-833-833c-16-16-43-16-59 0-16 16-16 42 0 59l833 833z m-658-363c-103 0-187 84-187 188 0 103 84 187 187 187 104 0 188-84 188-187 0-104-84-188-188-188z m0 84c58 0 104 46 104 104 0 57-46 104-104 104-57 0-104-47-104-104 0-58 47-104 104-104z m542-625c-104 0-188 84-188 187 0 104 84 188 188 188 103 0 187-84 187-188 0-103-84-187-187-187z m0 83c57 0 104 47 104 104 0 58-47 104-104 104-58 0-104-46-104-104 0-57 46-104 104-104z" horiz-adv-x="1000" />

<glyph glyph-name="sale-3" unicode="&#xe8e0;" d="M748 706c59 0 108-49 108-108l0-101 71-70c42-43 42-111 0-154l-71-70 0-100c0-60-49-109-108-109l-101 0-70-71c-43-42-111-42-154 0l-70 71-100 0c-60 0-109 49-109 109l0 100-71 70c-42 43-42 111 0 154l71 70 0 101c0 59 49 108 109 108l100 0 70 71c43 42 111 42 154 0l70-71 101 0z m-147-71l-83 83c-10 9-26 9-36 0l-83-83c-7-8-18-12-29-12l-117 0c-14 0-25-12-25-25l0-118c0-11-5-21-13-29l-83-83c-9-10-9-26 0-36l83-83c8-7 13-18 13-29l0-117c0-14 11-25 25-25l117 0c11 0 22-5 29-13l83-83c10-9 26-9 36 0l83 83c8 8 18 13 29 13l118 0c13 0 25 11 25 25l0 117c0 11 4 22 12 29l83 83c9 10 9 26 0 36l-83 83c-8 8-12 18-12 29l0 118c0 13-12 25-25 25l-118 0c-11 0-21 4-29 12z m15-110c17 17 43 17 59 0 17-16 17-42 0-59l-291-291c-17-17-43-17-59 0-17 16-17 42 0 59l291 291z m-241-112c-34 0-62 28-62 62 0 35 28 63 62 63 35 0 63-28 63-63 0-34-28-62-63-62z m250-250c-34 0-62 28-62 62 0 35 28 63 62 63 35 0 63-28 63-63 0-34-28-62-63-62z" horiz-adv-x="1000" />

<glyph glyph-name="sale-4" unicode="&#xe8e1;" d="M468 694c-27-27-75-40-112-30l-42 11c-1 0-13-43-13-43-10-37-45-72-83-82l-42-12c-1 0 10-44 10-44 10-37-2-85-30-112l-31-31c0 0 31-33 31-33 28-27 40-75 30-112l-11-42c0-1 43-13 43-13 38-10 73-45 83-83l11-42c0-1 44 10 44 10 37 10 85-2 112-30l31-31c1 0 33 31 33 31 27 28 75 40 112 30l42-11c1 0 14 43 14 43 10 38 45 73 82 83l42 11c1 0-10 44-10 44-10 37 3 85 30 112l31 31c0 1-31 33-31 33-27 27-40 75-30 112l11 42c0 1-43 14-43 14-37 10-72 45-82 82l-12 42c0 1-44-10-44-10-37-10-85 3-112 30l-31 31c0 0-33-31-33-31z m92 90l31-31c6-6 23-11 32-9l42 11a85 85 0 0 0 104-60l11-41c2-9 15-22 24-24l41-11a85 85 0 0 0 60-104l-11-42c-2-9 3-26 9-32l31-31a85 85 0 0 0 0-120l-31-31c-6-6-11-23-9-32l11-42a85 85 0 0 0-60-104l-41-11c-9-2-22-15-24-23l-11-42a85 85 0 0 0-104-60l-42 11c-9 2-26-3-32-9l-31-31a85 85 0 0 0-120 0l-31 31c-6 6-23 11-32 9l-42-11a85 85 0 0 0-104 60l-11 42c-2 8-15 21-23 23l-42 11a85 85 0 0 0-60 104l11 42c2 9-2 26-9 32l-30 31a85 85 0 0 0 0 120l30 31c7 6 11 23 9 32l-11 42a85 85 0 0 0 60 104l42 11c8 2 21 15 23 24l11 41a85 85 0 0 0 104 60l42-11c9-2 26 3 32 9l31 31a85 85 0 0 0 120 0z m-60-684c138 0 250 112 250 250s-112 250-250 250-250-112-250-250 112-250 250-250z m0 83a167 167 0 1 0 0 334 167 167 0 0 0 0-334z" horiz-adv-x="1000" />

<glyph glyph-name="save" unicode="&#xe8e2;" d="M417 725l-146 0 0-229c0-12 9-21 21-21l292 0c11 0 20 9 20 21l0 229-62 0 0-146c0-23-19-41-42-41l-42 0c-23 0-41 18-41 41l0 146z m-229-750l0 229c0 58 46 104 104 104l416 0c58 0 105-46 105-104l0-229 41 0c12 0 21 9 21 21l0 587-142 142-45 0 0-229c0-57-47-104-104-104l-292 0c-58 0-104 46-104 104l0 229-42 0c-12 0-21-9-21-21l0-708c0-12 9-21 21-21l42 0 0 0z m-146 729c0 58 46 104 104 104l604 0c11 0 22-4 30-12l166-166c8-8 12-19 12-30l0-604c0-58-46-104-104-104l-708 0c-58 0-104 46-104 104l0 708z m687-500c0 12-9 21-21 21l-416 0c-12 0-21-9-21-21l0-229 458 0 0 229z" horiz-adv-x="1000" />

<glyph glyph-name="scan" unicode="&#xe8e3;" d="M708 725l146 0c12 0 21-9 21-21l0-146c0-23 19-41 42-41 23 0 41 18 41 41l0 146c0 58-46 104-104 104l-146 0c-23 0-41-18-41-41 0-23 18-42 41-42z m167-583l0-146c0-12-9-21-21-21l-146 0c-23 0-41-19-41-42 0-23 18-41 41-41l146 0c58 0 104 46 104 104l0 146c0 23-18 41-41 41-23 0-42-18-42-41z m-583-167l-146 0c-12 0-21 9-21 21l0 146c0 23-19 41-42 41-23 0-41-18-41-41l0-146c0-58 46-104 104-104l146 0c23 0 41 18 41 41 0 23-18 42-41 42z m-167 583c0-23-19-41-42-41-23 0-41 18-41 41l0 146c0 58 46 104 104 104l146 0c23 0 41-18 41-41 0-23-18-42-41-42l-146 0c-12 0-21-9-21-21l0-146z m-42-250c-23 0-41 19-41 42 0 23 18 42 41 42l834 0c23 0 41-19 41-42 0-23-18-42-41-42l-834 0z" horiz-adv-x="1000" />

<glyph glyph-name="scroll-paper" unicode="&#xe8e4;" d="M209-108c-93 0-167 74-167 166l0 63c0 57 46 104 104 104l146 0 0 479c0 58 46 104 104 104l458 0c58 0 104-46 104-104l0-646c0-92-74-166-166-166l-583 0z m666 166l0 646c0 12-9 21-21 21l-458 0c-12 0-21-9-21-21l0-479 229 0c58 0 104-47 104-104l0-63c0-46 38-83 84-83 46 0 83 37 83 83z m-250 0l0 63c0 11-9 21-21 21l-458 0c-12 0-21-10-21-21l0-63c0-46 37-83 84-83l438 0c-14 24-22 53-22 83z m-125 480c-23 0-42 18-42 41 0 23 19 42 42 42l250 0c23 0 42-19 42-42 0-23-19-41-42-41l-250 0z m0-146c-23 0-42 18-42 41 0 23 19 42 42 42l125 0c23 0 42-19 42-42 0-23-19-41-42-41l-125 0z" horiz-adv-x="1000" />

<glyph glyph-name="search-1" unicode="&#xe8e5;" d="M710 199l236-236c16-17 16-43 0-59-16-16-42-16-59 0l-236 236c-64-51-146-82-234-82-207 0-375 168-375 375 0 207 168 375 375 375 207 0 375-168 375-375 0-88-31-170-82-234l0 0z m-293-57c161 0 291 130 291 291 0 161-130 292-291 292-161 0-292-131-292-292 0-161 131-291 292-291z" horiz-adv-x="1000" />

<glyph glyph-name="search-2" unicode="&#xe8e6;" d="M711 292l217-217a105 105 0 0 0 0-149l-4-4a105 105 0 0 0-149 0l-217 217a353 353 0 0 0-162-39c-196 0-354 159-354 354s158 354 354 354 354-158 354-354c0-58-14-114-39-162z m-48-70c-11-13-22-24-34-35l205-206a22 22 0 0 1 31 0l4 4a22 22 0 0 1 0 31l-206 206z m-267-39c149 0 271 122 271 271s-122 271-271 271-271-121-271-271 121-271 271-271z" horiz-adv-x="1000" />

<glyph glyph-name="search-in-1" unicode="&#xe8e7;" d="M710 199l236-236a42 42 0 0 0-59-59l-236 236a373 373 0 0 0-234-82c-207 0-375 168-375 375s168 375 375 375 375-168 375-375c0-88-31-170-82-234z m-335 276v104a42 42 0 1 0 83 0v-104h105a42 42 0 1 0 0-83h-105v-104a42 42 0 1 0-83 0v104h-104a42 42 0 1 0 0 83h104z m42-333c161 0 291 130 291 291s-130 292-291 292-292-131-292-292 131-291 292-291z" horiz-adv-x="1000" />

<glyph glyph-name="search-in-2" unicode="&#xe8e8;" d="M354 496l0 83c0 23 19 42 42 42 23 0 42-19 42-42l0-83 83 0c23 0 42-19 42-42 0-23-19-41-42-41l-83 0 0-84c0-23-19-41-42-41-23 0-42 18-42 41l0 84-83 0c-23 0-42 18-42 41 0 23 19 42 42 42l83 0 0 0z m357-204l217-217c41-41 41-108 0-149l-4-4c-41-41-107-41-149 0l-217 217c-48-25-104-39-162-39-196 0-354 159-354 354 0 196 158 354 354 354 195 0 354-158 354-354 0-58-14-114-39-162l0 0z m-48-70c-11-13-22-24-34-35l205-206c9-8 23-8 31 0l4 4c8 8 8 22 0 31l-206 206z m-267-39c149 0 271 122 271 271 0 150-122 271-271 271-150 0-271-121-271-271 0-149 121-271 271-271z" horiz-adv-x="1000" />

<glyph glyph-name="search-out-1" unicode="&#xe8e9;" d="M710 199l236-236c16-17 16-43 0-59-16-16-42-16-59 0l-236 236c-64-51-146-82-234-82-207 0-375 168-375 375 0 207 168 375 375 375 207 0 375-168 375-375 0-88-31-170-82-234l0 0z m-293-57c161 0 291 130 291 291 0 161-130 292-291 292-161 0-292-131-292-292 0-161 131-291 292-291z m-146 250c-23 0-42 18-42 41 0 23 19 42 42 42l292 0c23 0 41-19 41-42 0-23-18-41-41-41l-292 0z" horiz-adv-x="1000" />

<glyph glyph-name="search-out-2" unicode="&#xe8ea;" d="M711 292l217-217a105 105 0 0 0 0-149l-4-4a105 105 0 0 0-149 0l-217 217a353 353 0 0 0-162-39c-196 0-354 159-354 354s158 354 354 354 354-158 354-354c0-58-14-114-39-162z m-48-70c-11-13-22-24-34-35l205-206a22 22 0 0 1 31 0l4 4a22 22 0 0 1 0 31l-206 206z m-267-39c149 0 271 122 271 271s-122 271-271 271-271-121-271-271 121-271 271-271z m-125 230a42 42 0 1 0 0 83h250a42 42 0 1 0 0-83h-250z" horiz-adv-x="1000" />

<glyph glyph-name="send-message-1" unicode="&#xe8eb;" d="M408 317l336 336-559-224 223-112z m395 277l-336-336 112-223 224 559z m-738-198c-32 16-30 63 3 76l833 333c34 14 68-20 54-54l-333-833c-13-34-60-36-76-3l-160 321-321 160z" horiz-adv-x="1000" />

<glyph glyph-name="send-message-2" unicode="&#xe8ec;" d="M712 392l-558 237 84-237h474z m0-84h-474l-84-237 558 237z m-668 382c-12 35 22 67 56 53l833-355c34-14 34-62 0-76l-833-355c-34-14-68 18-56 53l120 340-120 340z" horiz-adv-x="1000" />

<glyph glyph-name="settings-2" unicode="&#xe8ed;" d="M854 697a125 125 0 0 0 0-236v-507a42 42 0 1 0-83 0v507a125 125 0 0 0 0 236v49a42 42 0 1 0 83 0v-49z m-41-159a42 42 0 1 1 0 83 42 42 0 0 1 0-83z m-584-70a125 125 0 0 0 0-236v-278a42 42 0 1 0-83 0v278a125 125 0 0 0 0 236v278a42 42 0 1 0 83 0v-278z m-41-160a42 42 0 1 1 0 84 42 42 0 0 1 0-84z m354 438v-507a125 125 0 0 0 0-236v-49a42 42 0 1 0-84 0v49a125 125 0 0 0 0 236v507a42 42 0 1 0 84 0z m-42-667a42 42 0 1 1 0 84 42 42 0 0 1 0-84z" horiz-adv-x="1000" />

<glyph glyph-name="settings-3" unicode="&#xe8ee;" d="M520 803l375-208c14-8 22-21 22-37l0-416c0-15-8-29-22-37l-375-208c-12-7-28-7-40 0l-375 208c-13 8-22 22-22 37l0 416c0 16 9 29 22 37l375 208c12 7 28 7 40 0z m-353-269l0-368 333-185 333 185 0 368-333 185-333-185z m333-371c-104 0-187 83-187 187 0 104 83 188 187 188 104 0 188-84 188-188 0-104-84-187-188-187z m0 83c58 0 104 47 104 104 0 58-46 104-104 104-57 0-104-46-104-104 0-57 47-104 104-104z" horiz-adv-x="1000" />

</font>
</defs>
</svg>
